Coda-Heavy-IN.ufo
<glyph name="exclam" format="1">
  <advance width="1063"/>
  <unicode hex="0021"/>
  <outline>
    <contour>
      <point x="524" y="539" type="curve" smooth="yes"/>
      <point x="549" y="539"/>
      <point x="573" y="562"/>
      <point x="584" y="607" type="curve" smooth="yes"/>
      <point x="647" y="874"/>
      <point x="782" y="1253"/>
      <point x="782" y="1411" type="curve" smooth="yes"/>
      <point x="782" y="1556"/>
      <point x="651" y="1631"/>
      <point x="522" y="1631" type="curve" smooth="yes"/>
      <point x="396" y="1631"/>
      <point x="271" y="1560"/>
      <point x="271" y="1413" type="curve" smooth="yes"/>
      <point x="271" y="1259"/>
      <point x="399" y="880"/>
      <point x="463" y="607" type="curve" smooth="yes"/>
      <point x="474" y="561"/>
      <point x="499" y="539"/>
    </contour>
    <contour>
      <point x="524" y="-39" type="curve" smooth="yes"/>
      <point x="626" y="-39"/>
      <point x="728" y="31"/>
      <point x="728" y="171" type="curve" smooth="yes"/>
      <point x="728" y="311"/>
      <point x="626" y="381"/>
      <point x="524" y="381" type="curve" smooth="yes"/>
      <point x="422" y="381"/>
      <point x="320" y="311"/>
      <point x="320" y="171" type="curve" smooth="yes"/>
      <point x="320" y="31"/>
      <point x="422" y="-39"/>
    </contour>
  </outline>
</glyph>
<glyph name="numbersign" format="1">
  <advance width="1743"/>
  <unicode hex="0023"/>
  <outline>
    <contour>
      <point x="160" y="0" type="line"/>
      <point x="662" y="0" type="line"/>
      <point x="722" y="429" type="line"/>
      <point x="919" y="429" type="line"/>
      <point x="858" y="0" type="line"/>
      <point x="1359" y="0" type="line"/>
      <point x="1419" y="430" type="line"/>
      <point x="1584" y="430" type="line"/>
      <point x="1611" y="621" type="line"/>
      <point x="1448" y="621" type="line"/>
      <point x="1500" y="994" type="line"/>
      <point x="1651" y="994" type="line"/>
      <point x="1681" y="1200" type="line"/>
      <point x="1533" y="1200" type="line"/>
      <point x="1586" y="1595" type="line"/>
      <point x="1088" y="1595" type="line"/>
      <point x="1033" y="1200" type="line"/>
      <point x="836" y="1200" type="line"/>
      <point x="889" y="1595" type="line"/>
      <point x="390" y="1595" type="line"/>
      <point x="336" y="1200" type="line"/>
      <point x="183" y="1200" type="line"/>
      <point x="154" y="993" type="line"/>
      <point x="302" y="993" type="line"/>
      <point x="251" y="621" type="line"/>
      <point x="113" y="621" type="line"/>
      <point x="87" y="429" type="line"/>
      <point x="221" y="429" type="line"/>
    </contour>
    <contour>
      <point x="751" y="621" type="line"/>
      <point x="803" y="993" type="line"/>
      <point x="1000" y="993" type="line"/>
      <point x="948" y="621" type="line"/>
    </contour>
  </outline>
</glyph>
<glyph name="dollar" format="1">
  <advance width="1628"/>
  <unicode hex="0024"/>
  <outline>
    <contour>
      <point x="771" y="-168" type="line"/>
      <point x="850" y="-168" type="line"/>
      <point x="850" y="23" type="line"/>
      <point x="1233" y="30"/>
      <point x="1464" y="122"/>
      <point x="1464" y="510" type="curve" smooth="yes"/>
      <point x="1464" y="873"/>
      <point x="1134" y="942"/>
      <point x="850" y="997" type="curve"/>
      <point x="850" y="1283" type="line"/>
      <point x="933" y="1283" type="line"/>
      <point x="933" y="1122" type="line"/>
      <point x="1432" y="1092" type="line"/>
      <point x="1443" y="1282"/>
      <point x="1430" y="1435"/>
      <point x="1231" y="1500" type="curve"/>
      <point x="1126" y="1533"/>
      <point x="1000" y="1544"/>
      <point x="850" y="1545" type="curve"/>
      <point x="850" y="1730" type="line"/>
      <point x="771" y="1730" type="line"/>
      <point x="771" y="1544" type="line"/>
      <point x="424" y="1538"/>
      <point x="156" y="1462"/>
      <point x="156" y="1080" type="curve" smooth="yes"/>
      <point x="156" y="711"/>
      <point x="478" y="639"/>
      <point x="771" y="586" type="curve"/>
      <point x="771" y="283" type="line"/>
      <point x="686" y="283" type="line"/>
      <point x="686" y="450" type="line"/>
      <point x="187" y="482" type="line"/>
      <point x="175" y="239"/>
      <point x="235" y="125"/>
      <point x="387" y="71" type="curve" smooth="yes"/>
      <point x="492" y="34"/>
      <point x="619" y="23"/>
      <point x="771" y="22" type="curve"/>
    </contour>
    <contour>
      <point x="771" y="1012" type="line"/>
      <point x="741" y="1018"/>
      <point x="713" y="1025"/>
      <point x="686" y="1031" type="curve"/>
      <point x="686" y="1283" type="line"/>
      <point x="771" y="1283" type="line"/>
    </contour>
    <contour>
      <point x="850" y="283" type="line"/>
      <point x="850" y="572" type="line"/>
      <point x="933" y="556" type="line"/>
      <point x="933" y="283" type="line"/>
    </contour>
  </outline>
</glyph>
<glyph name="percent" format="1">
  <advance width="2592"/>
  <unicode hex="0025"/>
  <outline>
    <contour>
      <point x="476" y="618" type="curve" smooth="yes"/>
      <point x="250" y="618"/>
      <point x="26" y="623"/>
      <point x="26" y="927" type="curve" smooth="yes"/>
      <point x="26" y="1286" type="line" smooth="yes"/>
      <point x="26" y="1577"/>
      <point x="253" y="1595"/>
      <point x="475" y="1595" type="curve" smooth="yes"/>
      <point x="696" y="1595"/>
      <point x="926" y="1578"/>
      <point x="926" y="1288" type="curve" smooth="yes"/>
      <point x="926" y="929" type="line" smooth="yes"/>
      <point x="926" y="630"/>
      <point x="699" y="618"/>
    </contour>
    <contour>
      <point x="2116" y="129" type="curve" smooth="yes"/>
      <point x="1891" y="129"/>
      <point x="1666" y="146"/>
      <point x="1666" y="441" type="curve" smooth="yes"/>
      <point x="1666" y="798" type="line" smooth="yes"/>
      <point x="1666" y="1091"/>
      <point x="1891" y="1109"/>
      <point x="2115" y="1109" type="curve" smooth="yes"/>
      <point x="2338" y="1109"/>
      <point x="2566" y="1092"/>
      <point x="2566" y="799" type="curve" smooth="yes"/>
      <point x="2566" y="442" type="line" smooth="yes"/>
      <point x="2566" y="153"/>
      <point x="2337" y="129"/>
    </contour>
    <contour>
      <point x="524" y="833" type="line"/>
      <point x="524" y="1378" type="line"/>
      <point x="433" y="1378" type="line"/>
      <point x="433" y="833" type="line"/>
    </contour>
    <contour>
      <point x="916" y="-39" type="line"/>
      <point x="1304" y="-39" type="line"/>
      <point x="1680" y="1632" type="line"/>
      <point x="1296" y="1632" type="line"/>
    </contour>
    <contour>
      <point x="2073" y="347" type="line"/>
      <point x="2163" y="347" type="line"/>
      <point x="2163" y="892" type="line"/>
      <point x="2073" y="892" type="line"/>
    </contour>
  </outline>
</glyph>
<glyph name="ampersand" format="1">
  <advance width="1743"/>
  <unicode hex="0026"/>
  <outline>
    <contour>
      <point x="815" y="-40" type="curve" smooth="yes"/>
      <point x="1361" y="-40"/>
      <point x="1491" y="75"/>
      <point x="1491" y="513" type="curve" smooth="yes"/>
      <point x="1491" y="736" type="line"/>
      <point x="1642" y="736" type="line"/>
      <point x="1642" y="929" type="line"/>
      <point x="1491" y="929" type="line"/>
      <point x="1491" y="1068" type="line"/>
      <point x="945" y="1068" type="line"/>
      <point x="945" y="929" type="line"/>
      <point x="840.5" y="929.0" type="line"/>
      <point x="736" y="929" type="line"/>
      <point x="736" y="1392" type="line"/>
      <point x="839.0" y="1392.0" type="line"/>
      <point x="942" y="1392" type="line"/>
      <point x="942" y="1184" type="line"/>
      <point x="1487" y="1184" type="line"/>
      <point x="1490" y="1203"/>
      <point x="1491" y="1221"/>
      <point x="1491" y="1238" type="curve" smooth="yes"/>
      <point x="1491" y="1522"/>
      <point x="1269" y="1632"/>
      <point x="855" y="1632" type="curve" smooth="yes"/>
      <point x="502" y="1632"/>
      <point x="133" y="1594"/>
      <point x="133" y="1198" type="curve" smooth="yes"/>
      <point x="133" y="958"/>
      <point x="229" y="880"/>
      <point x="296" y="873" type="curve" smooth="yes"/>
      <point x="408" y="861" type="line"/>
      <point x="408" y="822" type="line"/>
      <point x="296" y="809" type="line" smooth="yes"/>
      <point x="175" y="795"/>
      <point x="134" y="569"/>
      <point x="134" y="456" type="curve" smooth="yes"/>
      <point x="134" y="16"/>
      <point x="410" y="-40"/>
    </contour>
    <contour>
      <point x="840.5" y="224.0" type="line"/>
      <point x="736" y="224" type="line"/>
      <point x="736" y="736" type="line"/>
      <point x="945" y="736" type="line"/>
      <point x="945" y="224" type="line"/>
    </contour>
  </outline>
</glyph>
<glyph name="quotesingle" format="1">
  <advance width="928"/>
  <unicode hex="0027"/>
  <outline>
    <contour>
      <point x="515" y="896" type="curve" smooth="yes"/>
      <point x="560" y="1086"/>
      <point x="653" y="1344"/>
      <point x="653" y="1452" type="curve" smooth="yes"/>
      <point x="653" y="1568"/>
      <point x="555" y="1629"/>
      <point x="458" y="1629" type="curve" smooth="yes"/>
      <point x="364" y="1629"/>
      <point x="272" y="1572"/>
      <point x="272" y="1454" type="curve" smooth="yes"/>
      <point x="272" y="1349"/>
      <point x="360" y="1090"/>
      <point x="405" y="896" type="curve"/>
      <point x="416" y="856"/>
      <point x="438" y="837"/>
      <point x="460" y="837" type="curve" smooth="yes"/>
      <point x="482" y="837"/>
      <point x="506" y="857"/>
    </contour>
  </outline>
</glyph>
<glyph name="parenleft" format="1">
  <advance width="1231"/>
  <unicode hex="0028"/>
  <outline>
    <contour>
      <point x="975" y="-169" type="curve"/>
      <point x="975" y="110" type="line"/>
      <point x="749.0" y="110.0"/>
      <point x="657" y="466"/>
      <point x="657" y="827" type="curve" smooth="yes"/>
      <point x="657" y="1188"/>
      <point x="749.0" y="1562.0"/>
      <point x="975" y="1562" type="curve"/>
      <point x="975" y="1841" type="line"/>
      <point x="457.0" y="1841.0"/>
      <point x="255" y="1328"/>
      <point x="255" y="827" type="curve" smooth="yes"/>
      <point x="255" y="326"/>
      <point x="457.0" y="-169.0"/>
    </contour>
  </outline>
</glyph>
<glyph name="parenright" format="1">
  <advance width="1246"/>
  <unicode hex="0029"/>
  <outline>
    <contour>
      <point x="255" y="-169" type="line"/>
      <point x="348" y="-169" type="line" smooth="yes"/>
      <point x="773" y="-169"/>
      <point x="975" y="326"/>
      <point x="975" y="827" type="curve" smooth="yes"/>
      <point x="975" y="1328"/>
      <point x="773" y="1841"/>
      <point x="348" y="1841" type="curve" smooth="yes"/>
      <point x="255" y="1841" type="line"/>
      <point x="255" y="1562" type="line"/>
      <point x="320" y="1562" type="line" smooth="yes"/>
      <point x="481" y="1562"/>
      <point x="573" y="1188"/>
      <point x="573" y="827" type="curve" smooth="yes"/>
      <point x="573" y="466"/>
      <point x="481" y="110"/>
      <point x="320" y="110" type="curve" smooth="yes"/>
      <point x="255" y="110" type="line"/>
    </contour>
  </outline>
</glyph>
<glyph name="asterisk" format="1">
  <advance width="1417"/>
  <unicode hex="002A"/>
  <outline>
    <contour>
      <point x="489" y="430" type="curve" smooth="yes"/>
      <point x="611" y="430"/>
      <point x="635" y="599"/>
      <point x="702" y="840" type="curve"/>
      <point x="740" y="703"/>
      <point x="778" y="549"/>
      <point x="814" y="489" type="curve" smooth="yes"/>
      <point x="839" y="447"/>
      <point x="877" y="430"/>
      <point x="916" y="430" type="curve" smooth="yes"/>
      <point x="996" y="430"/>
      <point x="1083" y="500"/>
      <point x="1083" y="581" type="curve" smooth="yes"/>
      <point x="1083" y="657"/>
      <point x="956" y="765"/>
      <point x="814" y="899" type="curve"/>
      <point x="950" y="862"/>
      <point x="1098" y="817"/>
      <point x="1167" y="817" type="curve" smooth="yes"/>
      <point x="1253" y="817"/>
      <point x="1293" y="889"/>
      <point x="1293" y="962" type="curve" smooth="yes"/>
      <point x="1293" y="1037"/>
      <point x="1250" y="1112"/>
      <point x="1167" y="1112" type="curve" smooth="yes"/>
      <point x="1096" y="1112"/>
      <point x="948" y="1065"/>
      <point x="814" y="1027" type="curve"/>
      <point x="960" y="1169"/>
      <point x="1084" y="1275"/>
      <point x="1084" y="1351" type="curve" smooth="yes"/>
      <point x="1084" y="1430"/>
      <point x="996" y="1497"/>
      <point x="916" y="1497" type="curve" smooth="yes"/>
      <point x="875" y="1497"/>
      <point x="837" y="1480"/>
      <point x="813" y="1440" type="curve" smooth="yes"/>
      <point x="775" y="1376"/>
      <point x="739" y="1219"/>
      <point x="702" y="1080" type="curve"/>
      <point x="666" y="1219"/>
      <point x="630" y="1376"/>
      <point x="592" y="1440" type="curve" smooth="yes"/>
      <point x="568" y="1480"/>
      <point x="529" y="1497"/>
      <point x="489" y="1497" type="curve" smooth="yes"/>
      <point x="408" y="1497"/>
      <point x="321" y="1431"/>
      <point x="321" y="1351" type="curve" smooth="yes"/>
      <point x="321" y="1275"/>
      <point x="442" y="1170"/>
      <point x="590" y="1027" type="curve"/>
      <point x="456" y="1065"/>
      <point x="309" y="1112"/>
      <point x="238" y="1112" type="curve" smooth="yes"/>
      <point x="155" y="1112"/>
      <point x="112" y="1037"/>
      <point x="112" y="962" type="curve" smooth="yes"/>
      <point x="112" y="889"/>
      <point x="152" y="817"/>
      <point x="237" y="817" type="curve" smooth="yes"/>
      <point x="306" y="817"/>
      <point x="454" y="861"/>
      <point x="590" y="899" type="curve"/>
      <point x="447" y="765"/>
      <point x="321" y="658"/>
      <point x="321" y="581" type="curve" smooth="yes"/>
      <point x="321" y="502"/>
      <point x="407" y="430"/>
    </contour>
  </outline>
</glyph>
<glyph name="plus" format="1">
  <advance width="1517"/>
  <unicode hex="002B"/>
  <outline>
    <contour>
      <point x="561" y="100" type="line"/>
      <point x="953" y="100" type="line"/>
      <point x="953" y="478" type="line"/>
      <point x="1317" y="478" type="line"/>
      <point x="1317" y="811" type="line"/>
      <point x="953" y="811" type="line"/>
      <point x="953" y="1192" type="line"/>
      <point x="561" y="1192" type="line"/>
      <point x="561" y="811" type="line"/>
      <point x="196" y="811" type="line"/>
      <point x="196" y="478" type="line"/>
      <point x="561" y="478" type="line"/>
    </contour>
  </outline>
</glyph>
<glyph name="comma" format="1">
  <advance width="989"/>
  <unicode hex="002C"/>
  <outline>
    <contour>
      <point x="347" y="-234" type="curve" smooth="yes"/>
      <point x="568" y="-234"/>
      <point x="694" y="-15"/>
      <point x="694" y="169" type="curve" smooth="yes"/>
      <point x="694" y="298"/>
      <point x="628" y="409"/>
      <point x="484" y="409" type="curve" smooth="yes"/>
      <point x="382" y="409"/>
      <point x="280" y="342"/>
      <point x="280" y="209" type="curve" smooth="yes"/>
      <point x="280" y="80"/>
      <point x="366" y="10"/>
      <point x="459" y="0" type="curve"/>
      <point x="453" y="-77"/>
      <point x="383" y="-121"/>
      <point x="303" y="-122" type="curve"/>
      <point x="303" y="-231" type="line"/>
      <point x="318" y="-233"/>
      <point x="333" y="-234"/>
    </contour>
    <contour>
      <point x="495" y="0" type="move" name="_bot"/>
    </contour>
  </outline>
</glyph>
<glyph name="slash" format="1">
  <advance width="1215"/>
  <unicode hex="002F"/>
  <outline>
    <contour>
      <point x="225" y="0" type="line"/>
      <point x="660" y="0" type="line"/>
      <point x="1011" y="1595" type="line"/>
      <point x="577" y="1595" type="line"/>
    </contour>
  </outline>
</glyph>
<glyph name="zero" format="1">
  <advance width="1674"/>
  <unicode hex="0030"/>
  <outline>
    <contour>
      <point x="834.0" y="233.0" type="line"/>
      <point x="751" y="233" type="line"/>
      <point x="751.0" y="796.0" type="line"/>
      <point x="751" y="1359" type="line"/>
      <point x="834.0" y="1359.0" type="line"/>
      <point x="917" y="1359" type="line"/>
      <point x="917.0" y="796.0" type="line"/>
      <point x="917" y="233" type="line"/>
    </contour>
    <contour>
      <point x="837" y="-39" type="curve" smooth="yes"/>
      <point x="1149" y="-39"/>
      <point x="1481" y="-25"/>
      <point x="1481" y="352" type="curve" smooth="yes"/>
      <point x="1481" y="1242" type="line" smooth="yes"/>
      <point x="1481" y="1603"/>
      <point x="1154" y="1633"/>
      <point x="836" y="1633" type="curve" smooth="yes"/>
      <point x="527" y="1633"/>
      <point x="187" y="1610"/>
      <point x="187" y="1242" type="curve" smooth="yes"/>
      <point x="187" y="352" type="line" smooth="yes"/>
      <point x="187" y="-14"/>
      <point x="520" y="-39"/>
    </contour>
  </outline>
</glyph>
<glyph name="one" format="1">
  <advance width="1254"/>
  <unicode hex="0031"/>
  <outline>
    <contour>
      <point x="377" y="0" type="line"/>
      <point x="981" y="0" type="line"/>
      <point x="981" y="1595" type="line"/>
      <point x="503" y="1595" type="line"/>
      <point x="415" y="1542"/>
      <point x="293" y="1511"/>
      <point x="156" y="1511" type="curve"/>
      <point x="156" y="1291" type="line"/>
      <point x="377" y="1291" type="line"/>
    </contour>
  </outline>
</glyph>
<glyph name="two" format="1">
  <advance width="1613"/>
  <unicode hex="0032"/>
  <outline>
    <contour>
      <point x="173" y="1" type="line"/>
      <point x="1372" y="1" type="line"/>
      <point x="1372" y="301" type="line"/>
      <point x="725" y="301" type="line"/>
      <point x="725" y="423"/>
      <point x="847" y="494"/>
      <point x="953" y="545" type="curve" smooth="yes"/>
      <point x="1171" y="650"/>
      <point x="1444" y="776"/>
      <point x="1444" y="1125" type="curve" smooth="yes"/>
      <point x="1444" y="1500"/>
      <point x="1234" y="1633"/>
      <point x="813" y="1633" type="curve" smooth="yes"/>
      <point x="442" y="1633"/>
      <point x="171" y="1536"/>
      <point x="171" y="1124" type="curve" smooth="yes"/>
      <point x="171" y="1106"/>
      <point x="172" y="1087"/>
      <point x="173" y="1064" type="curve"/>
      <point x="725" y="1064" type="line"/>
      <point x="725" y="1358" type="line"/>
      <point x="801.0" y="1358.0" type="line"/>
      <point x="877" y="1358" type="line"/>
      <point x="877" y="1086" type="line" smooth="yes"/>
      <point x="877" y="989"/>
      <point x="762" y="936"/>
      <point x="668" y="890" type="curve"/>
      <point x="384" y="758"/>
      <point x="173" y="599"/>
      <point x="173" y="201" type="curve" smooth="yes"/>
    </contour>
  </outline>
</glyph>
<glyph name="three" format="1">
  <advance width="1644"/>
  <unicode hex="0033"/>
  <outline>
    <contour>
      <point x="816" y="-39" type="curve" smooth="yes"/>
      <point x="1211" y="-39"/>
      <point x="1466" y="79"/>
      <point x="1466" y="522" type="curve" smooth="yes"/>
      <point x="1466" y="661"/>
      <point x="1399" y="770"/>
      <point x="1263" y="820" type="curve"/>
      <point x="1384" y="869"/>
      <point x="1464" y="965"/>
      <point x="1464" y="1113" type="curve" smooth="yes"/>
      <point x="1464" y="1506"/>
      <point x="1247" y="1632"/>
      <point x="814" y="1632" type="curve" smooth="yes"/>
      <point x="393" y="1632"/>
      <point x="172" y="1503"/>
      <point x="172" y="1108" type="curve" smooth="yes"/>
      <point x="172" y="1081"/>
      <point x="173" y="1053"/>
      <point x="175" y="1024" type="curve"/>
      <point x="727" y="1024" type="line"/>
      <point x="727" y="1361" type="line"/>
      <point x="813.0" y="1361.0" type="line"/>
      <point x="899" y="1361" type="line"/>
      <point x="899" y="931" type="line"/>
      <point x="640" y="931" type="line"/>
      <point x="640" y="707" type="line"/>
      <point x="899" y="707" type="line"/>
      <point x="899" y="235" type="line"/>
      <point x="813.0" y="235.0" type="line"/>
      <point x="727" y="235" type="line"/>
      <point x="727" y="613" type="line"/>
      <point x="175" y="613" type="line"/>
      <point x="172" y="580"/>
      <point x="171" y="548"/>
      <point x="171" y="517" type="curve" smooth="yes"/>
      <point x="171" y="142"/>
      <point x="370" y="-39"/>
    </contour>
  </outline>
</glyph>
<glyph name="four" format="1">
  <advance width="1667"/>
  <unicode hex="0034"/>
  <outline>
    <contour>
      <point x="418" y="1595" type="line"/>
      <point x="164" y="657" type="line"/>
      <point x="164" y="240" type="line"/>
      <point x="956" y="240" type="line"/>
      <point x="956" y="0" type="line"/>
      <point x="1468" y="0" type="line"/>
      <point x="1468" y="938" type="line"/>
      <point x="956" y="938" type="line"/>
      <point x="956" y="603" type="line"/>
      <point x="740" y="603" type="line"/>
      <point x="740" y="657" type="line"/>
      <point x="991" y="1595" type="line"/>
    </contour>
  </outline>
</glyph>
<glyph name="five" format="1">
  <advance width="1644"/>
  <unicode hex="0035"/>
  <outline>
    <contour>
      <point x="819" y="-39" type="curve" smooth="yes"/>
      <point x="1292" y="-39"/>
      <point x="1469" y="87"/>
      <point x="1469" y="553" type="curve" smooth="yes"/>
      <point x="1469" y="881"/>
      <point x="1386" y="1105"/>
      <point x="1060" y="1105" type="curve" smooth="yes"/>
      <point x="901" y="1105"/>
      <point x="777" y="1077"/>
      <point x="709" y="998" type="curve"/>
      <point x="743" y="1299" type="line"/>
      <point x="1334" y="1299" type="line"/>
      <point x="1334" y="1596" type="line"/>
      <point x="241" y="1596" type="line"/>
      <point x="188" y="655" type="line"/>
      <point x="721" y="655" type="line"/>
      <point x="721" y="838" type="line"/>
      <point x="902" y="838" type="line"/>
      <point x="902" y="236" type="line"/>
      <point x="721" y="236" type="line"/>
      <point x="721" y="474" type="line"/>
      <point x="171" y="474" type="line"/>
      <point x="171" y="424"/>
      <point x="174" y="376"/>
      <point x="180" y="331" type="curve" smooth="yes"/>
      <point x="218" y="30"/>
      <point x="474" y="-39"/>
    </contour>
  </outline>
</glyph>
<glyph name="six" format="1">
  <advance width="1644"/>
  <unicode hex="0036"/>
  <outline>
    <contour>
      <point x="812" y="-39" type="curve"/>
      <point x="1274" y="-36"/>
      <point x="1476" y="62"/>
      <point x="1476" y="523" type="curve" smooth="yes"/>
      <point x="1476" y="941"/>
      <point x="1317" y="1068"/>
      <point x="855" y="1068" type="curve" smooth="yes"/>
      <point x="731" y="1068" type="line"/>
      <point x="731" y="1369" type="line"/>
      <point x="812.5" y="1369.0" type="line"/>
      <point x="894" y="1369" type="line"/>
      <point x="894" y="1158" type="line"/>
      <point x="1425" y="1158" type="line"/>
      <point x="1425" y="1183"/>
      <point x="1423" y="1208"/>
      <point x="1423" y="1237" type="curve" smooth="yes"/>
      <point x="1423" y="1608"/>
      <point x="1130" y="1632"/>
      <point x="811" y="1632" type="curve" smooth="yes"/>
      <point x="356" y="1632"/>
      <point x="179" y="1496"/>
      <point x="179" y="1056" type="curve" smooth="yes"/>
      <point x="179" y="476" type="line" smooth="yes"/>
      <point x="179" y="93"/>
      <point x="376" y="-39"/>
    </contour>
    <contour>
      <point x="820.0" y="236.0" type="line"/>
      <point x="730" y="236" type="line"/>
      <point x="730" y="798" type="line"/>
      <point x="820.0" y="798.0" type="line"/>
      <point x="910" y="798" type="line"/>
      <point x="910" y="236" type="line"/>
    </contour>
  </outline>
</glyph>
<glyph name="seven" format="1">
  <advance width="1277"/>
  <unicode hex="0037"/>
  <outline>
    <contour>
      <point x="243" y="0" type="line"/>
      <point x="847" y="0" type="line"/>
      <point x="1073" y="1351" type="line"/>
      <point x="1073" y="1595" type="line"/>
      <point x="171" y="1595" type="line"/>
      <point x="171" y="1354" type="line"/>
      <point x="465" y="1354" type="line"/>
    </contour>
  </outline>
</glyph>
<glyph name="eight" format="1">
  <advance width="1628"/>
  <unicode hex="0038"/>
  <outline>
    <contour>
      <point x="813" y="-40" type="curve" smooth="yes"/>
      <point x="1192" y="-40"/>
      <point x="1460" y="34"/>
      <point x="1460" y="470" type="curve" smooth="yes"/>
      <point x="1460" y="671"/>
      <point x="1397" y="830"/>
      <point x="1241" y="864" type="curve"/>
      <point x="1357" y="898"/>
      <point x="1402" y="1022"/>
      <point x="1402" y="1180" type="curve" smooth="yes"/>
      <point x="1402" y="1528"/>
      <point x="1163" y="1631"/>
      <point x="811" y="1631" type="curve" smooth="yes"/>
      <point x="458" y="1631"/>
      <point x="211" y="1529"/>
      <point x="211" y="1181" type="curve" smooth="yes"/>
      <point x="211" y="1035"/>
      <point x="241" y="900"/>
      <point x="343" y="864" type="curve"/>
      <point x="180" y="818"/>
      <point x="156" y="608"/>
      <point x="156" y="470" type="curve" smooth="yes"/>
      <point x="156" y="75"/>
      <point x="379" y="-40"/>
    </contour>
    <contour>
      <point x="803.0" y="235.0" type="line"/>
      <point x="720" y="235" type="line"/>
      <point x="720" y="720" type="line"/>
      <point x="803.0" y="720.0" type="line"/>
      <point x="886" y="720" type="line"/>
      <point x="886" y="235" type="line"/>
    </contour>
    <contour>
      <point x="732" y="960" type="line"/>
      <point x="732" y="1355" type="line"/>
      <point x="809.0" y="1355.0" type="line"/>
      <point x="886" y="1355" type="line"/>
      <point x="886" y="960" type="line"/>
    </contour>
  </outline>
</glyph>
<glyph name="nine" format="1">
  <advance width="1651"/>
  <unicode hex="0039"/>
  <outline>
    <contour>
      <point x="818" y="1629" type="curve" smooth="yes"/>
      <point x="421" y="1629"/>
      <point x="164" y="1551"/>
      <point x="164" y="1071" type="curve" smooth="yes"/>
      <point x="164" y="688"/>
      <point x="274" y="508"/>
      <point x="672" y="508" type="curve" smooth="yes"/>
      <point x="899" y="508" type="line"/>
      <point x="899" y="225" type="line"/>
      <point x="820.0" y="225.0" type="line"/>
      <point x="741" y="225" type="line"/>
      <point x="741" y="424" type="line"/>
      <point x="210" y="424" type="line"/>
      <point x="210" y="394"/>
      <point x="210" y="362"/>
      <point x="211" y="328" type="curve" smooth="yes"/>
      <point x="220" y="0"/>
      <point x="526" y="-40"/>
      <point x="829" y="-40" type="curve" smooth="yes"/>
      <point x="1257" y="-40"/>
      <point x="1461" y="84"/>
      <point x="1461" y="520" type="curve" smooth="yes"/>
      <point x="1461" y="1116" type="line" smooth="yes"/>
      <point x="1461" y="1508"/>
      <point x="1306" y="1629"/>
    </contour>
    <contour>
      <point x="809.5" y="1358.0" type="line"/>
      <point x="895" y="1358" type="line"/>
      <point x="895" y="779" type="line"/>
      <point x="809.5" y="779.0" type="line"/>
      <point x="724" y="779" type="line"/>
      <point x="724" y="1358" type="line"/>
    </contour>
  </outline>
</glyph>
<glyph name="colon" format="1">
  <advance width="981"/>
  <unicode hex="003A"/>
  <outline>
    <contour>
      <point x="484" y="113" type="curve" smooth="yes"/>
      <point x="586" y="113"/>
      <point x="688" y="183"/>
      <point x="688" y="323" type="curve" smooth="yes"/>
      <point x="688" y="463"/>
      <point x="586" y="533"/>
      <point x="484" y="533" type="curve" smooth="yes"/>
      <point x="382" y="533"/>
      <point x="280" y="463"/>
      <point x="280" y="323" type="curve" smooth="yes"/>
      <point x="280" y="183"/>
      <point x="382" y="113"/>
    </contour>
    <contour>
      <point x="484" y="923" type="curve" smooth="yes"/>
      <point x="586" y="923"/>
      <point x="688" y="993"/>
      <point x="688" y="1133" type="curve" smooth="yes"/>
      <point x="688" y="1273"/>
      <point x="586" y="1343"/>
      <point x="484" y="1343" type="curve" smooth="yes"/>
      <point x="382" y="1343"/>
      <point x="280" y="1273"/>
      <point x="280" y="1133" type="curve" smooth="yes"/>
      <point x="280" y="993"/>
      <point x="382" y="923"/>
    </contour>
  </outline>
</glyph>
<glyph name="semicolon" format="1">
  <advance width="1040"/>
  <unicode hex="003B"/>
  <outline>
    <contour>
      <point x="376" y="-120" type="curve" smooth="yes"/>
      <point x="597" y="-120"/>
      <point x="723" y="99"/>
      <point x="723" y="283" type="curve" smooth="yes"/>
      <point x="723" y="412"/>
      <point x="657" y="523"/>
      <point x="513" y="523" type="curve" smooth="yes"/>
      <point x="411" y="523"/>
      <point x="309" y="456"/>
      <point x="309" y="323" type="curve" smooth="yes"/>
      <point x="309" y="194"/>
      <point x="395" y="124"/>
      <point x="488" y="114" type="curve"/>
      <point x="482" y="37"/>
      <point x="412" y="-7"/>
      <point x="332" y="-8" type="curve"/>
      <point x="332" y="-117" type="line"/>
      <point x="347" y="-119"/>
      <point x="362" y="-120"/>
    </contour>
    <contour>
      <point x="513" y="923" type="curve" smooth="yes"/>
      <point x="615" y="923"/>
      <point x="717" y="993"/>
      <point x="717" y="1133" type="curve" smooth="yes"/>
      <point x="717" y="1273"/>
      <point x="615" y="1343"/>
      <point x="513" y="1343" type="curve" smooth="yes"/>
      <point x="411" y="1343"/>
      <point x="309" y="1273"/>
      <point x="309" y="1133" type="curve" smooth="yes"/>
      <point x="309" y="993"/>
      <point x="411" y="923"/>
    </contour>
  </outline>
</glyph>
<glyph name="equal" format="1">
  <advance width="1310"/>
  <unicode hex="003D"/>
  <outline>
    <contour>
      <point x="234" y="0" type="line"/>
      <point x="1128" y="0" type="line"/>
      <point x="1128" y="336" type="line"/>
      <point x="234" y="336" type="line"/>
    </contour>
    <contour>
      <point x="234" y="561" type="line"/>
      <point x="1128" y="561" type="line"/>
      <point x="1128" y="897" type="line"/>
      <point x="234" y="897" type="line"/>
    </contour>
  </outline>
</glyph>
<glyph name="question" format="1">
  <advance width="1261"/>
  <unicode hex="003F"/>
  <outline>
    <contour>
      <point x="503" y="510" type="curve" smooth="yes"/>
      <point x="530" y="510"/>
      <point x="560" y="524"/>
      <point x="565" y="567" type="curve" smooth="yes"/>
      <point x="605" y="912"/>
      <point x="1021" y="1009"/>
      <point x="1021" y="1313" type="curve" smooth="yes"/>
      <point x="1021" y="1473"/>
      <point x="923" y="1632"/>
      <point x="588" y="1632" type="curve" smooth="yes"/>
      <point x="492" y="1632"/>
      <point x="370" y="1611"/>
      <point x="217" y="1562" type="curve"/>
      <point x="253" y="1215" type="line"/>
      <point x="336" y="1250"/>
      <point x="399" y="1264"/>
      <point x="447" y="1264" type="curve" smooth="yes"/>
      <point x="550" y="1264"/>
      <point x="589" y="1212"/>
      <point x="589" y="1150" type="curve" smooth="yes"/>
      <point x="589" y="1141"/>
      <point x="588" y="1132"/>
      <point x="587" y="1123" type="curve" smooth="yes"/>
      <point x="560" y="979"/>
      <point x="442" y="814"/>
      <point x="442" y="582" type="curve" smooth="yes"/>
      <point x="442" y="536"/>
      <point x="462" y="510"/>
    </contour>
    <contour>
      <point x="505" y="-39" type="curve" smooth="yes"/>
      <point x="607" y="-39"/>
      <point x="709" y="31"/>
      <point x="709" y="171" type="curve" smooth="yes"/>
      <point x="709" y="311"/>
      <point x="607" y="381"/>
      <point x="505" y="381" type="curve" smooth="yes"/>
      <point x="403" y="381"/>
      <point x="301" y="311"/>
      <point x="301" y="171" type="curve" smooth="yes"/>
      <point x="301" y="31"/>
      <point x="403" y="-39"/>
    </contour>
  </outline>
</glyph>
<glyph name="at" format="1">
  <advance width="2347"/>
  <unicode hex="0040"/>
  <outline>
    <contour>
      <point x="1322" y="-393" type="curve" smooth="yes"/>
      <point x="1528" y="-393"/>
      <point x="1712" y="-320"/>
      <point x="1844" y="-233" type="curve"/>
      <point x="1786" y="22" type="line"/>
      <point x="1525" y="-40"/>
      <point x="1404" y="-58"/>
      <point x="1304" y="-58" type="curve" smooth="yes"/>
      <point x="671" y="-58"/>
      <point x="510" y="59"/>
      <point x="510" y="692" type="curve" smooth="yes"/>
      <point x="510" y="1204"/>
      <point x="647" y="1424"/>
      <point x="1234" y="1424" type="curve" smooth="yes"/>
      <point x="1669" y="1424"/>
      <point x="1859" y="1339"/>
      <point x="1859" y="832" type="curve" smooth="yes"/>
      <point x="1859" y="330" type="line"/>
      <point x="1774.0" y="330.0" type="line"/>
      <point x="1689" y="330" type="line"/>
      <point x="1689" y="837" type="line" smooth="yes"/>
      <point x="1689" y="1146"/>
      <point x="1578" y="1248"/>
      <point x="1220" y="1248" type="curve" smooth="yes"/>
      <point x="940" y="1248"/>
      <point x="745" y="1204"/>
      <point x="745" y="956" type="curve" smooth="yes"/>
      <point x="745" y="933"/>
      <point x="746" y="910"/>
      <point x="746" y="887" type="curve"/>
      <point x="1198" y="887" type="line"/>
      <point x="1198" y="1022" type="line"/>
      <point x="1227.5" y="1022.0" type="line"/>
      <point x="1257" y="1022" type="line"/>
      <point x="1257" y="788" type="line"/>
      <point x="1204" y="822"/>
      <point x="1131" y="836"/>
      <point x="1032" y="836" type="curve" smooth="yes"/>
      <point x="747.294117647" y="836.0"/>
      <point x="688.333333333" y="605.0"/>
      <point x="695" y="405" type="curve" smooth="yes"/>
      <point x="702" y="199"/>
      <point x="815" y="113"/>
      <point x="1032" y="113" type="curve" smooth="yes"/>
      <point x="1151" y="113"/>
      <point x="1231" y="173"/>
      <point x="1284" y="239" type="curve"/>
      <point x="1345" y="139"/>
      <point x="1470" y="91"/>
      <point x="1635" y="88" type="curve"/>
      <point x="2128" y="88"/>
      <point x="2215" y="409"/>
      <point x="2215" y="878" type="curve" smooth="yes"/>
      <point x="2215" y="1508"/>
      <point x="1922" y="1741"/>
      <point x="1230" y="1741" type="curve" smooth="yes"/>
      <point x="522" y="1741"/>
      <point x="156" y="1495"/>
      <point x="156" y="687" type="curve" smooth="yes"/>
      <point x="156" y="-177"/>
      <point x="507" y="-393"/>
    </contour>
    <contour>
      <point x="1209.5" y="336.0" type="line"/>
      <point x="1163" y="336" type="line"/>
      <point x="1163" y="641" type="line"/>
      <point x="1256" y="641" type="line"/>
      <point x="1256" y="336" type="line"/>
    </contour>
  </outline>
</glyph>
<glyph name="B" format="1">
  <advance width="1672"/>
  <unicode hex="0042"/>
  <outline>
    <contour>
      <point x="179" y="0" type="line"/>
      <point x="1022" y="0" type="line" smooth="yes"/>
      <point x="1411" y="0"/>
      <point x="1565" y="91"/>
      <point x="1565" y="460" type="curve" smooth="yes"/>
      <point x="1565" y="647"/>
      <point x="1495" y="824"/>
      <point x="1185" y="860" type="curve"/>
      <point x="1185" y="873" type="line"/>
      <point x="1450" y="901"/>
      <point x="1524" y="1019"/>
      <point x="1524" y="1219" type="curve" smooth="yes"/>
      <point x="1524.0" y="1227.56902127"/>
      <point x="1523.8414511" y="1235.94618505"/>
      <point x="1523.52806723" y="1244.13568669" type="curve" smooth="yes"/>
      <point x="1511.69963903" y="1553.24199528"/>
      <point x="1279.28932069" y="1595.0"/>
      <point x="1026" y="1595" type="curve" smooth="yes"/>
      <point x="179" y="1595" type="line"/>
    </contour>
    <contour>
      <point x="783" y="235" type="line"/>
      <point x="783" y="770" type="line"/>
      <point x="956" y="770" type="line"/>
      <point x="956.0" y="592.96347037" type="line"/>
      <point x="956.0" y="415.926940739" type="line"/>
      <point x="956" y="235" type="line"/>
    </contour>
    <contour>
      <point x="783" y="951" type="line"/>
      <point x="783" y="1358" type="line"/>
      <point x="956" y="1358" type="line"/>
      <point x="956.0" y="1206.32430673" type="line"/>
      <point x="956.0" y="1054.64861345" type="line"/>
      <point x="956" y="951" type="line"/>
    </contour>
    <contour>
      <point x="844" y="1595" type="move" name="top"/>
    </contour>
  </outline>
</glyph>
<glyph name="C" format="1">
  <advance width="1706"/>
  <unicode hex="0043"/>
  <outline>
    <contour>
      <point x="867" y="-40" type="curve" smooth="yes"/>
      <point x="1171" y="-40"/>
      <point x="1553" y="-6"/>
      <point x="1553" y="369" type="curve" smooth="yes"/>
      <point x="1553" y="614" type="line"/>
      <point x="949" y="614" type="line"/>
      <point x="949" y="233" type="line"/>
      <point x="862.5" y="233.0" type="line"/>
      <point x="776" y="233" type="line"/>
      <point x="776.0" y="794.5" type="line"/>
      <point x="776" y="1356" type="line"/>
      <point x="862.5" y="1356.0" type="line"/>
      <point x="949" y="1356" type="line"/>
      <point x="949" y="979" type="line"/>
      <point x="1553" y="979" type="line"/>
      <point x="1553" y="1227" type="line" smooth="yes"/>
      <point x="1553" y="1606"/>
      <point x="1179" y="1636"/>
      <point x="864" y="1636" type="curve" smooth="yes"/>
      <point x="564" y="1636"/>
      <point x="171" y="1598"/>
      <point x="171" y="1226" type="curve" smooth="yes"/>
      <point x="171.0" y="798.0" type="line"/>
      <point x="171" y="370" type="line" smooth="yes"/>
      <point x="171" y="-9"/>
      <point x="592" y="-40"/>
    </contour>
    <contour>
      <point x="851" y="1595" type="move" name="top"/>
    </contour>
    <contour>
      <point x="851" y="0" type="move" name="bottom"/>
    </contour>
    <contour>
      <point x="851" y="0" type="move" name="bot"/>
    </contour>
  </outline>
</glyph>
<glyph name="D" format="1">
  <advance width="1732"/>
  <unicode hex="0044"/>
  <outline>
    <contour>
      <point x="784" y="235" type="line"/>
      <point x="784" y="1358" type="line"/>
      <point x="957" y="1358" type="line"/>
      <point x="957.0" y="948.820635706" type="line"/>
      <point x="957.0" y="539.641271412" type="line"/>
      <point x="957" y="235" type="line"/>
    </contour>
    <contour>
      <point x="179" y="0" type="line"/>
      <point x="935" y="0" type="line" smooth="yes"/>
      <point x="1246" y="0"/>
      <point x="1561" y="26"/>
      <point x="1561" y="393" type="curve" smooth="yes"/>
      <point x="1561" y="1204" type="line" smooth="yes"/>
      <point x="1561" y="1559"/>
      <point x="1251" y="1595"/>
      <point x="935" y="1595" type="curve" smooth="yes"/>
      <point x="179" y="1595" type="line"/>
    </contour>
    <contour>
      <point x="864" y="0" type="move" name="bot"/>
    </contour>
    <contour>
      <point x="864" y="1595" type="move" name="top"/>
    </contour>
    <contour>
      <point x="486" y="805" type="move" name="mid"/>
    </contour>
  </outline>
</glyph>
<glyph name="E" format="1">
  <advance width="1274"/>
  <unicode hex="0045"/>
  <outline>
    <contour>
      <point x="179" y="0" type="line"/>
      <point x="1124" y="0" type="line"/>
      <point x="1124" y="251" type="line"/>
      <point x="783" y="251" type="line"/>
      <point x="783" y="711" type="line"/>
      <point x="1101" y="711" type="line"/>
      <point x="1101" y="961" type="line"/>
      <point x="783" y="961" type="line"/>
      <point x="783" y="1346" type="line"/>
      <point x="1124" y="1346" type="line"/>
      <point x="1124" y="1595" type="line"/>
      <point x="179" y="1595" type="line"/>
    </contour>
    <contour>
      <point x="635" y="0" type="move" name="bot"/>
    </contour>
    <contour>
      <point x="683" y="0" type="move" name="ogonek"/>
    </contour>
    <contour>
      <point x="635" y="1595" type="move" name="top"/>
    </contour>
    <contour>
      <point x="635" y="0" type="move" name="bottom"/>
    </contour>
  </outline>
</glyph>
<glyph name="F" format="1">
  <advance width="1234"/>
  <unicode hex="0046"/>
  <outline>
    <contour>
      <point x="179" y="0" type="line"/>
      <point x="783" y="0" type="line"/>
      <point x="783" y="705" type="line"/>
      <point x="1101" y="705" type="line"/>
      <point x="1101" y="954" type="line"/>
      <point x="783" y="954" type="line"/>
      <point x="783" y="1346" type="line"/>
      <point x="1124" y="1346" type="line"/>
      <point x="1124" y="1595" type="line"/>
      <point x="179" y="1595" type="line"/>
    </contour>
    <contour>
      <point x="627" y="0" type="move" name="bot"/>
    </contour>
    <contour>
      <point x="627" y="1595" type="move" name="top"/>
    </contour>
  </outline>
</glyph>
<glyph name="G" format="1">
  <advance width="1699"/>
  <unicode hex="0047"/>
  <outline>
    <contour>
      <point x="911" y="-29" type="curve" smooth="yes"/>
      <point x="1073" y="-29"/>
      <point x="1433" y="-4"/>
      <point x="1553" y="100" type="curve"/>
      <point x="1553" y="769" type="line"/>
      <point x="913" y="769" type="line"/>
      <point x="913" y="600" type="line"/>
      <point x="1061" y="600" type="line"/>
      <point x="1061" y="235" type="line"/>
      <point x="918" y="235" type="line"/>
      <point x="775" y="235" type="line"/>
      <point x="775" y="797" type="line"/>
      <point x="775" y="1358" type="line"/>
      <point x="862" y="1358" type="line"/>
      <point x="948" y="1358" type="line"/>
      <point x="948" y="979" type="line"/>
      <point x="1553" y="999" type="line"/>
      <point x="1553" y="1227" type="line" smooth="yes"/>
      <point x="1553" y="1593"/>
      <point x="1127" y="1637"/>
      <point x="863" y="1637" type="curve" smooth="yes"/>
      <point x="560" y="1637"/>
      <point x="171" y="1602"/>
      <point x="171" y="1228" type="curve" smooth="yes"/>
      <point x="171" y="794" type="line"/>
      <point x="171" y="359" type="line" smooth="yes"/>
      <point x="171.0" y="7.53125"/>
      <point x="394.057142857" y="-29.0"/>
    </contour>
    <contour>
      <point x="861" y="1595" type="move" name="top"/>
    </contour>
    <contour>
      <point x="861" y="0" type="move" name="bottom"/>
    </contour>
    <contour>
      <point x="861" y="0" type="move" name="bot"/>
    </contour>
  </outline>
</glyph>
<glyph name="H" format="1">
  <advance width="1766"/>
  <unicode hex="0048"/>
  <outline>
    <contour>
      <point x="179" y="0" type="line"/>
      <point x="783" y="0" type="line"/>
      <point x="783" y="688" type="line"/>
      <point x="976" y="688" type="line"/>
      <point x="976" y="0" type="line"/>
      <point x="1580" y="0" type="line"/>
      <point x="1580" y="1595" type="line"/>
      <point x="976" y="1595" type="line"/>
      <point x="976" y="908" type="line"/>
      <point x="783" y="908" type="line"/>
      <point x="783" y="1595" type="line"/>
      <point x="179" y="1595" type="line"/>
    </contour>
    <contour>
      <point x="880" y="1595" type="move" name="top"/>
    </contour>
    <contour>
      <point x="880" y="798" type="move" name="center"/>
    </contour>
    <contour>
      <point x="880" y="0" type="move" name="bot"/>
    </contour>
  </outline>
</glyph>
<glyph name="I" format="1">
  <advance width="976"/>
  <unicode hex="0049"/>
  <outline>
    <contour>
      <point x="186" y="0" type="line"/>
      <point x="790" y="0" type="line"/>
      <point x="790" y="1595" type="line"/>
      <point x="186" y="1595" type="line"/>
    </contour>
    <contour>
      <point x="488" y="1595" type="move" name="top"/>
    </contour>
    <contour>
      <point x="500" y="0" type="move" name="ogonek"/>
    </contour>
    <contour>
      <point x="488" y="0" type="move" name="bot"/>
    </contour>
  </outline>
</glyph>
<glyph name="J" format="1">
  <advance width="1101"/>
  <unicode hex="004A"/>
  <outline>
    <contour>
      <point x="394" y="-159" type="curve" smooth="yes"/>
      <point x="688" y="-159"/>
      <point x="915" y="-44"/>
      <point x="915" y="274" type="curve" smooth="yes"/>
      <point x="915" y="1594" type="line"/>
      <point x="311" y="1594" type="line"/>
      <point x="311.0" y="259.576213837" type="line"/>
      <point x="311" y="138" type="line"/>
      <point x="138" y="138" type="line"/>
      <point x="138" y="-134" type="line"/>
      <point x="226" y="-150"/>
      <point x="313" y="-159"/>
    </contour>
    <contour>
      <point x="609" y="1595" type="move" name="top"/>
    </contour>
    <contour>
      <point x="546" y="0" type="move" name="bot"/>
    </contour>
  </outline>
</glyph>
<glyph name="K" format="1">
  <advance width="1774"/>
  <unicode hex="004B"/>
  <outline>
    <contour>
      <point x="156" y="0" type="line"/>
      <point x="761" y="0" type="line"/>
      <point x="761" y="564" type="line"/>
      <point x="820" y="695" type="line"/>
      <point x="1072" y="0" type="line"/>
      <point x="1721" y="0" type="line"/>
      <point x="1348" y="840" type="line"/>
      <point x="1673" y="1595" type="line"/>
      <point x="1054" y="1595" type="line"/>
      <point x="822.764615059" y="994.571847916" type="line"/>
      <point x="759" y="829" type="line"/>
      <point x="761" y="1013" type="line"/>
      <point x="761" y="1595" type="line"/>
      <point x="156" y="1595" type="line"/>
    </contour>
    <contour>
      <point x="898" y="1595" type="move" name="top"/>
    </contour>
    <contour>
      <point x="898" y="0" type="move" name="bottom"/>
    </contour>
    <contour>
      <point x="898" y="0" type="move" name="bot"/>
    </contour>
  </outline>
</glyph>
<glyph name="L" format="1">
  <advance width="1248"/>
  <unicode hex="004C"/>
  <outline>
    <contour>
      <point x="179" y="0" type="line"/>
      <point x="1124" y="0" type="line"/>
      <point x="1124" y="241" type="line"/>
      <point x="783" y="241" type="line"/>
      <point x="783" y="1595" type="line"/>
      <point x="179" y="1595" type="line"/>
    </contour>
    <contour>
      <point x="557" y="1300" type="move" name="caron.alt"/>
    </contour>
    <contour>
      <point x="623" y="0" type="move" name="bot"/>
    </contour>
    <contour>
      <point x="623" y="1595" type="move" name="top"/>
    </contour>
    <contour>
      <point x="512" y="857" type="move" name="mid"/>
    </contour>
    <contour>
      <point x="623" y="0" type="move" name="bottom"/>
    </contour>
  </outline>
</glyph>
<glyph name="M" format="1">
  <advance width="2026"/>
  <unicode hex="004D"/>
  <outline>
    <contour>
      <point x="118" y="0" type="line"/>
      <point x="579" y="0" type="line"/>
      <point x="635" y="958" type="line"/>
      <point x="649" y="958" type="line"/>
      <point x="794" y="-1" type="line"/>
      <point x="1221" y="-1" type="line"/>
      <point x="1378" y="958" type="line"/>
      <point x="1392" y="958" type="line"/>
      <point x="1448" y="0" type="line"/>
      <point x="1894" y="0" type="line"/>
      <point x="1810" y="1595" type="line"/>
      <point x="1139" y="1595" type="line"/>
      <point x="1012" y="671" type="line"/>
      <point x="999" y="671" type="line"/>
      <point x="872" y="1595" type="line"/>
      <point x="202" y="1595" type="line"/>
    </contour>
    <contour>
      <point x="1006" y="0" type="move" name="bot"/>
    </contour>
    <contour>
      <point x="1006" y="1595" type="move" name="top"/>
    </contour>
  </outline>
</glyph>
<glyph name="N" format="1">
  <advance width="1758"/>
  <unicode hex="004E"/>
  <outline>
    <contour>
      <point x="179" y="0" type="line"/>
      <point x="627" y="0" type="line"/>
      <point x="627" y="711" type="line"/>
      <point x="1032" y="0" type="line"/>
      <point x="1571" y="0" type="line"/>
      <point x="1571" y="1595" type="line"/>
      <point x="1127" y="1595" type="line"/>
      <point x="1127" y="834" type="line"/>
      <point x="696" y="1595" type="line"/>
      <point x="179" y="1595" type="line"/>
    </contour>
    <contour>
      <point x="875" y="1595" type="move" name="top"/>
    </contour>
    <contour>
      <point x="875" y="0" type="move" name="bottom"/>
    </contour>
    <contour>
      <point x="875" y="0" type="move" name="bot"/>
    </contour>
  </outline>
</glyph>
<glyph name="O" format="1">
  <advance width="1724"/>
  <unicode hex="004F"/>
  <outline>
    <contour>
      <point x="862.5" y="235.0" type="line"/>
      <point x="776" y="235" type="line"/>
      <point x="776.0" y="798.5" type="line"/>
      <point x="776" y="1362" type="line"/>
      <point x="862.5" y="1362.0" type="line"/>
      <point x="949" y="1362" type="line"/>
      <point x="949.0" y="798.5" type="line"/>
      <point x="949" y="235" type="line"/>
    </contour>
    <contour>
      <point x="859" y="-39" type="curve"/>
      <point x="1161" y="-38"/>
      <point x="1553" y="-9"/>
      <point x="1553" y="370" type="curve" smooth="yes"/>
      <point x="1553" y="1226" type="line" smooth="yes"/>
      <point x="1553" y="1603"/>
      <point x="1131" y="1635"/>
      <point x="859" y="1635" type="curve" smooth="yes"/>
      <point x="558" y="1635"/>
      <point x="171" y="1598"/>
      <point x="171" y="1226" type="curve" smooth="yes"/>
      <point x="171" y="370" type="line" smooth="yes"/>
      <point x="171" y="-11"/>
      <point x="539" y="-39"/>
    </contour>
    <contour>
      <point x="862" y="1595" type="move" name="top"/>
    </contour>
    <contour>
      <point x="862" y="0" type="move" name="bot"/>
    </contour>
    <contour>
      <point x="991" y="0" type="move" name="ogonek"/>
    </contour>
  </outline>
</glyph>
<glyph name="P" format="1">
  <advance width="1681"/>
  <unicode hex="0050"/>
  <outline>
    <contour>
      <point x="179" y="0" type="line"/>
      <point x="783" y="0" type="line"/>
      <point x="783" y="402" type="line"/>
      <point x="935" y="402" type="line" smooth="yes"/>
      <point x="1245" y="402"/>
      <point x="1560" y="428"/>
      <point x="1560" y="793" type="curve" smooth="yes"/>
      <point x="1560" y="1204" type="line" smooth="yes"/>
      <point x="1560" y="1559"/>
      <point x="1250" y="1595"/>
      <point x="934" y="1595" type="curve" smooth="yes"/>
      <point x="179" y="1595" type="line"/>
    </contour>
    <contour>
      <point x="782" y="628" type="line"/>
      <point x="782" y="1362" type="line"/>
      <point x="955" y="1362" type="line"/>
      <point x="955.0" y="995.0" type="line"/>
      <point x="955" y="628" type="line"/>
    </contour>
    <contour>
      <point x="852" y="0" type="move" name="bot"/>
    </contour>
    <contour>
      <point x="852" y="1595" type="move" name="top"/>
    </contour>
  </outline>
</glyph>
<glyph name="Q" format="1">
  <advance width="1725"/>
  <unicode hex="0051"/>
  <outline>
    <contour>
      <point x="1121" y="-499" type="line"/>
      <point x="1366" y="-281" type="line"/>
      <point x="1140" y="-12" type="line"/>
      <point x="1356" y="30"/>
      <point x="1553" y="118"/>
      <point x="1553" y="370" type="curve" smooth="yes"/>
      <point x="1553" y="1226" type="line" smooth="yes"/>
      <point x="1553" y="1603"/>
      <point x="1131" y="1632"/>
      <point x="859" y="1632" type="curve" smooth="yes"/>
      <point x="558" y="1632"/>
      <point x="171" y="1598"/>
      <point x="171" y="1226" type="curve" smooth="yes"/>
      <point x="171" y="370" type="line" smooth="yes"/>
      <point x="171" y="39"/>
      <point x="449" y="-21"/>
      <point x="733" y="-36" type="curve"/>
    </contour>
    <contour>
      <point x="776" y="235" type="line"/>
      <point x="776" y="1362" type="line"/>
      <point x="949" y="1362" type="line"/>
      <point x="949" y="235" type="line"/>
    </contour>
  </outline>
</glyph>
<glyph name="R" format="1">
  <advance width="1728"/>
  <unicode hex="0052"/>
  <outline>
    <contour>
      <point x="179" y="0" type="line"/>
      <point x="783" y="0" type="line"/>
      <point x="783" y="649" type="line"/>
      <point x="956" y="649" type="line"/>
      <point x="956" y="557" type="line"/>
      <point x="956" y="0" type="line"/>
      <point x="1562" y="0" type="line"/>
      <point x="1562" y="437" type="line" smooth="yes"/>
      <point x="1562" y="609"/>
      <point x="1469" y="754"/>
      <point x="1186" y="786" type="curve"/>
      <point x="1186" y="792" type="line"/>
      <point x="1483" y="821"/>
      <point x="1546" y="968"/>
      <point x="1546" y="1190" type="curve" smooth="yes"/>
      <point x="1546" y="1502"/>
      <point x="1381" y="1595"/>
      <point x="1092" y="1595" type="curve" smooth="yes"/>
      <point x="179" y="1595" type="line"/>
    </contour>
    <contour>
      <point x="783" y="881" type="line"/>
      <point x="783" y="1358" type="line"/>
      <point x="956" y="1358" type="line"/>
      <point x="956.0" y="1119.5" type="line"/>
      <point x="956" y="881" type="line"/>
    </contour>
    <contour>
      <point x="851" y="1595" type="move" name="top"/>
    </contour>
    <contour>
      <point x="851" y="0" type="move" name="bottom"/>
    </contour>
    <contour>
      <point x="851" y="0" type="move" name="bot"/>
    </contour>
  </outline>
</glyph>
<glyph name="S" format="1">
  <advance width="1674"/>
  <unicode hex="0053"/>
  <outline>
    <contour>
      <point x="836" y="-39" type="curve" smooth="yes"/>
      <point x="1315" y="-39"/>
      <point x="1514" y="82"/>
      <point x="1514" y="542" type="curve" smooth="yes"/>
      <point x="1514" y="954"/>
      <point x="1168" y="1011"/>
      <point x="858" y="1066" type="curve" smooth="yes"/>
      <point x="813" y="1074"/>
      <point x="736" y="1083"/>
      <point x="736" y="1123" type="curve"/>
      <point x="736" y="1123"/>
      <point x="733" y="1358"/>
      <point x="733" y="1358" type="curve"/>
      <point x="819.5" y="1358.0" type="line"/>
      <point x="906" y="1358" type="line"/>
      <point x="906" y="1180" type="line"/>
      <point x="1442" y="1180" type="line"/>
      <point x="1441" y="1573"/>
      <point x="1190" y="1635"/>
      <point x="806" y="1635" type="curve" smooth="yes"/>
      <point x="438" y="1635"/>
      <point x="156" y="1550"/>
      <point x="156" y="1111" type="curve" smooth="yes"/>
      <point x="156" y="712"/>
      <point x="507" y="667"/>
      <point x="790" y="575" type="curve" smooth="yes"/>
      <point x="839" y="559"/>
      <point x="908" y="538"/>
      <point x="908" y="485" type="curve" smooth="yes"/>
      <point x="908" y="235" type="line"/>
      <point x="821.5" y="235.0" type="line"/>
      <point x="735" y="235" type="line"/>
      <point x="735" y="488" type="line"/>
      <point x="162" y="488" type="line"/>
      <point x="162" y="62"/>
      <point x="390" y="-39"/>
    </contour>
    <contour>
      <point x="827" y="1595" type="move" name="top"/>
    </contour>
    <contour>
      <point x="827" y="0" type="move" name="bottom"/>
    </contour>
    <contour>
      <point x="827" y="0" type="move" name="bot"/>
    </contour>
  </outline>
</glyph>
<glyph name="T" format="1">
  <advance width="1377"/>
  <unicode hex="0054"/>
  <outline>
    <contour>
      <point x="385" y="0" type="line"/>
      <point x="989" y="0" type="line"/>
      <point x="989" y="1326" type="line"/>
      <point x="1345" y="1326" type="line"/>
      <point x="1345" y="1595" type="line"/>
      <point x="32" y="1595" type="line"/>
      <point x="32" y="1326" type="line"/>
      <point x="385" y="1326" type="line"/>
    </contour>
    <contour>
      <point x="689" y="0" type="move" name="bot"/>
    </contour>
    <contour>
      <point x="689" y="1595" type="move" name="top"/>
    </contour>
    <contour>
      <point x="689" y="837" type="move" name="mid"/>
    </contour>
    <contour>
      <point x="689" y="0" type="move" name="bottom"/>
    </contour>
  </outline>
</glyph>
<glyph name="U" format="1">
  <advance width="1694"/>
  <unicode hex="0055"/>
  <outline>
    <contour>
      <point x="845" y="-39" type="curve" smooth="yes"/>
      <point x="1147" y="-39"/>
      <point x="1538" y="-4"/>
      <point x="1538" y="370" type="curve" smooth="yes"/>
      <point x="1538" y="1594" type="line"/>
      <point x="933" y="1594" type="line"/>
      <point x="933" y="234" type="line"/>
      <point x="846.5" y="234.0" type="line"/>
      <point x="760" y="234" type="line"/>
      <point x="760" y="1595" type="line"/>
      <point x="156" y="1595" type="line"/>
      <point x="156" y="371" type="line" smooth="yes"/>
      <point x="156" y="-7"/>
      <point x="568" y="-39"/>
    </contour>
    <contour>
      <point x="847" y="1595" type="move" name="top"/>
    </contour>
    <contour>
      <point x="968" y="0" type="move" name="ogonek"/>
    </contour>
    <contour>
      <point x="847" y="0" type="move" name="bot"/>
    </contour>
  </outline>
</glyph>
<glyph name="V" format="1">
  <advance width="1628"/>
  <unicode hex="0056"/>
  <outline>
    <contour>
      <point x="390" y="0" type="line"/>
      <point x="1232" y="0" type="line"/>
      <point x="1550" y="1595" type="line"/>
      <point x="958" y="1595" type="line"/>
      <point x="820" y="412" type="line"/>
      <point x="809" y="412" type="line"/>
      <point x="663" y="1595" type="line"/>
      <point x="72" y="1595" type="line"/>
    </contour>
  </outline>
</glyph>
<glyph name="W" format="1">
  <advance width="2057"/>
  <unicode hex="0057"/>
  <outline>
    <contour>
      <point x="235" y="0" type="line"/>
      <point x="857" y="0" type="line"/>
      <point x="1004" y="927" type="line"/>
      <point x="1015" y="927" type="line"/>
      <point x="1162" y="0" type="line"/>
      <point x="1804" y="0" type="line"/>
      <point x="2023" y="1595" type="line"/>
      <point x="1512" y="1595" type="line"/>
      <point x="1405" y="626" type="line"/>
      <point x="1391" y="624" type="line"/>
      <point x="1272" y="1595" type="line"/>
      <point x="793" y="1595" type="line"/>
      <point x="677" y="624" type="line"/>
      <point x="664" y="624" type="line"/>
      <point x="589" y="1595" type="line"/>
      <point x="26" y="1595" type="line"/>
    </contour>
    <contour>
      <point x="1025" y="1595" type="move" name="top"/>
    </contour>
    <contour>
      <point x="1025" y="0" type="move" name="bot"/>
    </contour>
  </outline>
</glyph>
<glyph name="bracketleft" format="1">
  <advance width="1315"/>
  <unicode hex="005B"/>
  <outline>
    <contour>
      <point x="240" y="-319" type="line"/>
      <point x="1215" y="-319" type="line"/>
      <point x="1215" y="-77" type="line"/>
      <point x="874" y="-77" type="line"/>
      <point x="874" y="1578" type="line"/>
      <point x="1215" y="1578" type="line"/>
      <point x="1215" y="1819" type="line"/>
      <point x="240" y="1819" type="line"/>
    </contour>
  </outline>
</glyph>
<glyph name="backslash" format="1">
  <advance width="1238"/>
  <unicode hex="005C"/>
  <outline>
    <contour>
      <point x="545" y="0" type="line"/>
      <point x="1020" y="0" type="line"/>
      <point x="668" y="1595" type="line"/>
      <point x="194" y="1595" type="line"/>
    </contour>
  </outline>
</glyph>
<glyph name="bracketright" format="1">
  <advance width="1621"/>
  <unicode hex="005D"/>
  <outline>
    <contour>
      <point x="393" y="-319" type="line"/>
      <point x="1368" y="-319" type="line"/>
      <point x="1368" y="1819" type="line"/>
      <point x="393" y="1819" type="line"/>
      <point x="393" y="1578" type="line"/>
      <point x="734" y="1578" type="line"/>
      <point x="734" y="-77" type="line"/>
      <point x="393" y="-77" type="line"/>
    </contour>
  </outline>
</glyph>
<glyph name="asciicircum" format="1">
  <advance width="1379"/>
  <unicode hex="005E"/>
  <outline>
    <contour>
      <point x="119" y="61" type="line"/>
      <point x="599" y="61" type="line"/>
      <point x="683" y="381" type="line"/>
      <point x="771" y="61" type="line"/>
      <point x="1252" y="61" type="line"/>
      <point x="969" y="676" type="line"/>
      <point x="391" y="676" type="line"/>
    </contour>
  </outline>
</glyph>
<glyph name="underscore" format="1">
  <advance width="1348"/>
  <unicode hex="005F"/>
  <outline>
    <contour>
      <point x="364" y="-435" type="line"/>
      <point x="1253" y="-435" type="line"/>
      <point x="1253" y="1" type="line"/>
      <point x="364" y="1" type="line"/>
    </contour>
  </outline>
</glyph>
<glyph name="grave" format="1">
  <advance width="1287"/>
  <unicode hex="0060"/>
  <outline>
    <contour>
      <point x="1076" y="1476" type="curve" smooth="yes"/>
      <point x="1106.25" y="1465.0"/>
      <point x="1134.75" y="1471.07142857"/>
      <point x="1152.625" y="1484.625" type="curve" smooth="yes"/>
      <point x="1178.12068966" y="1503.95689655"/>
      <point x="1180.33333333" y="1542.08333333"/>
      <point x="1137" y="1580" type="curve" smooth="yes"/>
      <point x="974" y="1729"/>
      <point x="764" y="1935"/>
      <point x="663" y="1993" type="curve" smooth="yes"/>
      <point x="618" y="2019"/>
      <point x="576" y="2030"/>
      <point x="538" y="2030" type="curve" smooth="yes"/>
      <point x="435" y="2030"/>
      <point x="364" y="1946"/>
      <point x="364" y="1852" type="curve" smooth="yes"/>
      <point x="364" y="1787"/>
      <point x="399" y="1717"/>
      <point x="480" y="1670" type="curve" smooth="yes"/>
      <point x="584" y="1610"/>
      <point x="871" y="1538"/>
    </contour>
    <contour>
      <point x="916" y="1300" type="move" name="_top"/>
    </contour>
  </outline>
</glyph>
<glyph name="a" format="1">
  <advance width="1593"/>
  <unicode hex="0061"/>
  <outline>
    <contour>
      <point x="543" y="-30" type="curve" smooth="yes"/>
      <point x="707" y="-30"/>
      <point x="822" y="38"/>
      <point x="883" y="139" type="curve"/>
      <point x="939" y="1" type="line"/>
      <point x="1430" y="1" type="line"/>
      <point x="1430" y="1"/>
      <point x="1430" y="952"/>
      <point x="1430" y="952" type="curve" smooth="yes"/>
      <point x="1430" y="1303"/>
      <point x="1096" y="1327"/>
      <point x="789" y="1327" type="curve" smooth="yes"/>
      <point x="552" y="1327"/>
      <point x="185" y="1304"/>
      <point x="185" y="1005" type="curve" smooth="yes"/>
      <point x="185" y="966"/>
      <point x="190" y="930"/>
      <point x="196" y="895" type="curve"/>
      <point x="721" y="915" type="line"/>
      <point x="721" y="1106" type="line"/>
      <point x="790.5" y="1106.0" type="line"/>
      <point x="860" y="1106" type="line"/>
      <point x="860" y="783" type="line"/>
      <point x="787" y="807"/>
      <point x="701" y="824"/>
      <point x="594" y="824" type="curve" smooth="yes"/>
      <point x="284" y="824"/>
      <point x="122" y="693"/>
      <point x="122" y="388" type="curve" smooth="yes"/>
      <point x="122" y="107"/>
      <point x="258" y="-30"/>
    </contour>
    <contour>
      <point x="777.0" y="200.0" type="line"/>
      <point x="694" y="200" type="line"/>
      <point x="694" y="653" type="line"/>
      <point x="860" y="653" type="line"/>
      <point x="860" y="200" type="line"/>
    </contour>
    <contour>
      <point x="790" y="1300" type="move" name="top"/>
    </contour>
    <contour>
      <point x="1169" y="0" type="move" name="ogonek"/>
    </contour>
    <contour>
      <point x="790" y="0" type="move" name="bot"/>
    </contour>
  </outline>
</glyph>
<glyph name="b" format="1">
  <advance width="1631"/>
  <unicode hex="0062"/>
  <outline>
    <contour>
      <point x="1057" y="-30" type="curve" smooth="yes"/>
      <point x="1335" y="-30"/>
      <point x="1474" y="106"/>
      <point x="1474" y="377" type="curve" smooth="yes"/>
      <point x="1474" y="940" type="line" smooth="yes"/>
      <point x="1474" y="1205"/>
      <point x="1329" y="1327"/>
      <point x="1060" y="1327" type="curve" smooth="yes"/>
      <point x="910" y="1327"/>
      <point x="803" y="1292"/>
      <point x="736" y="1215" type="curve"/>
      <point x="736" y="1710" type="line"/>
      <point x="165" y="1710" type="line"/>
      <point x="165" y="0" type="line"/>
      <point x="685" y="0" type="line"/>
      <point x="722" y="114" type="line"/>
      <point x="782" y="25"/>
      <point x="912" y="-30"/>
    </contour>
    <contour>
      <point x="819.5" y="199.0" type="line"/>
      <point x="736" y="199" type="line"/>
      <point x="736" y="1105" type="line"/>
      <point x="819.5" y="1105.0" type="line"/>
      <point x="903" y="1105" type="line"/>
      <point x="903" y="199" type="line"/>
    </contour>
    <contour>
      <point x="806" y="1300" type="move" name="top"/>
    </contour>
  </outline>
</glyph>
<glyph name="c" format="1">
  <advance width="1608"/>
  <unicode hex="0063"/>
  <outline>
    <contour>
      <point x="803" y="-30" type="curve" smooth="yes"/>
      <point x="1105" y="-30"/>
      <point x="1457" y="-10"/>
      <point x="1457" y="352" type="curve"/>
      <point x="1456" y="539" type="line"/>
      <point x="885" y="539" type="line"/>
      <point x="885" y="199" type="line"/>
      <point x="801.5" y="199.0" type="line"/>
      <point x="718" y="199" type="line"/>
      <point x="718" y="1105" type="line"/>
      <point x="801.5" y="1105.0" type="line"/>
      <point x="885" y="1105" type="line"/>
      <point x="885" y="787" type="line"/>
      <point x="1456" y="787" type="line"/>
      <point x="1456" y="978" type="line" smooth="yes"/>
      <point x="1456" y="1326"/>
      <point x="1064" y="1327"/>
      <point x="809" y="1327" type="curve" smooth="yes"/>
      <point x="514" y="1327"/>
      <point x="146" y="1310"/>
      <point x="146" y="955" type="curve" smooth="yes"/>
      <point x="146" y="355" type="line" smooth="yes"/>
      <point x="146" y="-1"/>
      <point x="494" y="-30"/>
    </contour>
    <contour>
      <point x="796" y="1300" type="move" name="top"/>
    </contour>
    <contour>
      <point x="796" y="0" type="move" name="bottom"/>
    </contour>
    <contour>
      <point x="796" y="0" type="move" name="bot"/>
    </contour>
  </outline>
</glyph>
<glyph name="d" format="1">
  <advance width="1631"/>
  <unicode hex="0064"/>
  <outline>
    <contour>
      <point x="570" y="-30" type="curve" smooth="yes"/>
      <point x="716" y="-30"/>
      <point x="843" y="26"/>
      <point x="905" y="114" type="curve"/>
      <point x="942" y="0" type="line"/>
      <point x="1462" y="0" type="line"/>
      <point x="1462" y="1710" type="line"/>
      <point x="891" y="1710" type="line"/>
      <point x="891" y="1215" type="line"/>
      <point x="824" y="1292"/>
      <point x="718" y="1327"/>
      <point x="568" y="1327" type="curve" smooth="yes"/>
      <point x="296" y="1327"/>
      <point x="153" y="1203"/>
      <point x="153" y="940" type="curve" smooth="yes"/>
      <point x="153" y="377" type="line" smooth="yes"/>
      <point x="153" y="106"/>
      <point x="292" y="-30"/>
    </contour>
    <contour>
      <point x="806.5" y="199.0" type="line"/>
      <point x="723" y="199" type="line"/>
      <point x="723" y="1105" type="line"/>
      <point x="806.5" y="1105.0" type="line"/>
      <point x="890" y="1105" type="line"/>
      <point x="890" y="199" type="line"/>
    </contour>
    <contour>
      <point x="1165" y="1471" type="move" name="mid"/>
    </contour>
    <contour>
      <point x="1266" y="1300" type="move" name="caron.alt"/>
    </contour>
    <contour>
      <point x="570" y="1442" type="move" name="top"/>
    </contour>
  </outline>
</glyph>
<glyph name="e" format="1">
  <advance width="1608"/>
  <unicode hex="0065"/>
  <outline>
    <contour>
      <point x="801" y="-30" type="curve" smooth="yes"/>
      <point x="1243" y="-30"/>
      <point x="1462" y="74"/>
      <point x="1462" y="380" type="curve" smooth="yes"/>
      <point x="1462" y="412"/>
      <point x="1459" y="445"/>
      <point x="1454" y="483" type="curve"/>
      <point x="883" y="483" type="line"/>
      <point x="883" y="199" type="line"/>
      <point x="716" y="199" type="line"/>
      <point x="716" y="604" type="line"/>
      <point x="1454" y="604" type="line"/>
      <point x="1454" y="954" type="line" smooth="yes"/>
      <point x="1454" y="1309"/>
      <point x="1092" y="1327"/>
      <point x="799" y="1327" type="curve" smooth="yes"/>
      <point x="513" y="1327"/>
      <point x="144" y="1306"/>
      <point x="144" y="953" type="curve" smooth="yes"/>
      <point x="144" y="353" type="line" smooth="yes"/>
      <point x="144" y="-11"/>
      <point x="497" y="-30"/>
    </contour>
    <contour>
      <point x="716" y="777" type="line"/>
      <point x="716" y="1105" type="line"/>
      <point x="800.0" y="1105.0" type="line"/>
      <point x="884" y="1105" type="line"/>
      <point x="884" y="777" type="line"/>
    </contour>
    <contour>
      <point x="795" y="0" type="move" name="bot"/>
    </contour>
    <contour>
      <point x="915" y="0" type="move" name="ogonek"/>
    </contour>
    <contour>
      <point x="795" y="1300" type="move" name="top"/>
    </contour>
    <contour>
      <point x="795" y="0" type="move" name="bottom"/>
    </contour>
  </outline>
</glyph>
<glyph name="h" format="1">
  <advance width="1639"/>
  <unicode hex="0068"/>
  <outline>
    <contour>
      <point x="167" y="0" type="line"/>
      <point x="738" y="0" type="line"/>
      <point x="738" y="1105" type="line"/>
      <point x="821.5" y="1105.0" type="line"/>
      <point x="905" y="1105" type="line"/>
      <point x="905" y="0" type="line"/>
      <point x="1476" y="0" type="line"/>
      <point x="1476" y="945" type="line" smooth="yes"/>
      <point x="1476" y="1206"/>
      <point x="1328" y="1327"/>
      <point x="1059" y="1327" type="curve" smooth="yes"/>
      <point x="926" y="1327"/>
      <point x="795" y="1288"/>
      <point x="738" y="1210" type="curve"/>
      <point x="738" y="1710" type="line"/>
      <point x="167" y="1710" type="line"/>
    </contour>
    <contour>
      <point x="811" y="0" type="move" name="bot"/>
    </contour>
    <contour>
      <point x="1011" y="1700" type="move" name="top"/>
    </contour>
    <contour>
      <point x="811" y="1300" type="move" name="mid"/>
    </contour>
    <contour>
      <point x="811" y="650" type="move" name="center"/>
    </contour>
  </outline>
</glyph>
<glyph name="k" format="1">
  <advance width="1647"/>
  <unicode hex="006B"/>
  <outline>
    <contour>
      <point x="142" y="0" type="line"/>
      <point x="713" y="0" type="line"/>
      <point x="713" y="478" type="line"/>
      <point x="756" y="575" type="line"/>
      <point x="995" y="0" type="line"/>
      <point x="1575" y="0" type="line"/>
      <point x="1237" y="690" type="line"/>
      <point x="1568" y="1300" type="line"/>
      <point x="982" y="1300" type="line"/>
      <point x="789.133876383" y="940.078832507" type="line"/>
      <point x="713" y="798" type="line"/>
      <point x="713.0" y="979.245870352" type="line"/>
      <point x="713" y="1710" type="line"/>
      <point x="142" y="1710" type="line"/>
    </contour>
    <contour>
      <point x="801" y="0" type="move" name="bot"/>
    </contour>
    <contour>
      <point x="801" y="0" type="move" name="bottom"/>
    </contour>
    <contour>
      <point x="1096" y="1500" type="move" name="top"/>
    </contour>
  </outline>
</glyph>
<glyph name="l" format="1">
  <advance width="966"/>
  <unicode hex="006C"/>
  <outline>
    <contour>
      <point x="205" y="0" type="line"/>
      <point x="776" y="0" type="line"/>
      <point x="776" y="1710" type="line"/>
      <point x="205" y="1710" type="line"/>
    </contour>
    <contour>
      <point x="593" y="1300" type="move" name="caron.alt"/>
    </contour>
    <contour>
      <point x="480" y="0" type="move" name="bot"/>
    </contour>
    <contour>
      <point x="480" y="1710" type="move" name="top"/>
    </contour>
    <contour>
      <point x="490" y="990" type="move" name="mid"/>
    </contour>
    <contour>
      <point x="480" y="0" type="move" name="bottom"/>
    </contour>
  </outline>
</glyph>
<glyph name="o" format="1">
  <advance width="1601"/>
  <unicode hex="006F"/>
  <outline>
    <contour>
      <point x="800.0" y="228.0" type="line"/>
      <point x="717" y="228" type="line"/>
      <point x="717" y="1105" type="line"/>
      <point x="800.0" y="1105.0" type="line"/>
      <point x="883" y="1105" type="line"/>
      <point x="883" y="228" type="line"/>
    </contour>
    <contour>
      <point x="804" y="-30" type="curve" smooth="yes"/>
      <point x="1109" y="-30"/>
      <point x="1455" y="-22"/>
      <point x="1455" y="347" type="curve" smooth="yes"/>
      <point x="1455" y="952" type="line" smooth="yes"/>
      <point x="1455" y="1296"/>
      <point x="1124" y="1327"/>
      <point x="805" y="1327" type="curve" smooth="yes"/>
      <point x="508" y="1327"/>
      <point x="146" y="1300"/>
      <point x="146" y="953" type="curve" smooth="yes"/>
      <point x="146" y="348" type="line" smooth="yes"/>
      <point x="146" y="-12"/>
      <point x="486" y="-30"/>
    </contour>
    <contour>
      <point x="797" y="1300" type="move" name="top"/>
    </contour>
    <contour>
      <point x="797" y="0" type="move" name="bot"/>
    </contour>
    <contour>
      <point x="928" y="0" type="move" name="ogonek"/>
    </contour>
  </outline>
</glyph>
<glyph name="p" format="1">
  <advance width="1631"/>
  <unicode hex="0070"/>
  <outline>
    <contour>
      <point x="165" y="-410" type="line"/>
      <point x="736" y="-410" type="line"/>
      <point x="736" y="87" type="line"/>
      <point x="797" y="8"/>
      <point x="916" y="-30"/>
      <point x="1055" y="-30" type="curve" smooth="yes"/>
      <point x="1329" y="-30"/>
      <point x="1475" y="99"/>
      <point x="1475" y="365" type="curve" smooth="yes"/>
      <point x="1475" y="926" type="line" smooth="yes"/>
      <point x="1475" y="1198"/>
      <point x="1328" y="1327"/>
      <point x="1052" y="1327" type="curve" smooth="yes"/>
      <point x="900" y="1327"/>
      <point x="759" y="1277"/>
      <point x="692" y="1188" type="curve"/>
      <point x="655" y="1300" type="line"/>
      <point x="165" y="1300" type="line"/>
    </contour>
    <contour>
      <point x="819.5" y="199.0" type="line"/>
      <point x="736" y="199" type="line"/>
      <point x="736" y="1105" type="line"/>
      <point x="819.5" y="1105.0" type="line"/>
      <point x="903" y="1105" type="line"/>
      <point x="903" y="199" type="line"/>
    </contour>
    <contour>
      <point x="809" y="0" type="move" name="bot"/>
    </contour>
    <contour>
      <point x="809" y="1300" type="move" name="top"/>
    </contour>
  </outline>
</glyph>
<glyph name="q" format="1">
  <advance width="1616"/>
  <unicode hex="0071"/>
  <outline>
    <contour>
      <point x="1444" y="-410" type="line"/>
      <point x="1444" y="1300" type="line"/>
      <point x="954" y="1300" type="line"/>
      <point x="917" y="1188" type="line"/>
      <point x="850" y="1277"/>
      <point x="709" y="1327"/>
      <point x="557" y="1327" type="curve" smooth="yes"/>
      <point x="281" y="1327"/>
      <point x="134" y="1198"/>
      <point x="134" y="926" type="curve" smooth="yes"/>
      <point x="134" y="365" type="line" smooth="yes"/>
      <point x="134" y="99"/>
      <point x="280" y="-30"/>
      <point x="554" y="-30" type="curve" smooth="yes"/>
      <point x="693" y="-30"/>
      <point x="812" y="8"/>
      <point x="873" y="87" type="curve"/>
      <point x="873" y="-410" type="line"/>
    </contour>
    <contour>
      <point x="789" y="199" type="line"/>
      <point x="706" y="199" type="line"/>
      <point x="706" y="1105" type="line"/>
      <point x="789" y="1105" type="line"/>
      <point x="873" y="1105" type="line"/>
      <point x="873" y="199" type="line"/>
    </contour>
  </outline>
</glyph>
<glyph name="r" format="1">
  <advance width="1195"/>
  <unicode hex="0072"/>
  <outline>
    <contour>
      <point x="176" y="0" type="line"/>
      <point x="747" y="0" type="line"/>
      <point x="747.0" y="745.396670461" type="line"/>
      <point x="747" y="893" type="line"/>
      <point x="1033" y="949" type="line"/>
      <point x="1033" y="1327" type="line"/>
      <point x="878" y="1323"/>
      <point x="749" y="1260"/>
      <point x="704" y="1153" type="curve"/>
      <point x="663" y="1300" type="line"/>
      <point x="177" y="1300" type="line"/>
    </contour>
    <contour>
      <point x="567" y="1300" type="move" name="top"/>
    </contour>
    <contour>
      <point x="477" y="0" type="move" name="bot"/>
    </contour>
  </outline>
</glyph>
<glyph name="s" format="1">
  <advance width="1469"/>
  <unicode hex="0073"/>
  <outline>
    <contour>
      <point x="740" y="-30" type="curve" smooth="yes"/>
      <point x="1147" y="-30"/>
      <point x="1388" y="6"/>
      <point x="1388" y="420" type="curve" smooth="yes"/>
      <point x="1388" y="679"/>
      <point x="1247" y="736"/>
      <point x="1047" y="786" type="curve" smooth="yes"/>
      <point x="919" y="818"/>
      <point x="714" y="827"/>
      <point x="680" y="861" type="curve"/>
      <point x="680" y="1063" type="line"/>
      <point x="754" y="1063" type="line"/>
      <point x="827" y="1063" type="line"/>
      <point x="827" y="924" type="line"/>
      <point x="1357" y="940" type="line"/>
      <point x="1357" y="1293"/>
      <point x="1122" y="1327"/>
      <point x="769" y="1327" type="curve" smooth="yes"/>
      <point x="357" y="1327"/>
      <point x="120" y="1266"/>
      <point x="120" y="900" type="curve" smooth="yes"/>
      <point x="120" y="625"/>
      <point x="254" y="567"/>
      <point x="462" y="517" type="curve" smooth="yes"/>
      <point x="589" y="486"/>
      <point x="800" y="480"/>
      <point x="828" y="446" type="curve"/>
      <point x="828" y="446"/>
      <point x="827" y="233"/>
      <point x="827" y="233" type="curve"/>
      <point x="754" y="233" type="line"/>
      <point x="680" y="233" type="line"/>
      <point x="680" y="400" type="line"/>
      <point x="150" y="397" type="line"/>
      <point x="150" y="8"/>
      <point x="388" y="-30"/>
    </contour>
    <contour>
      <point x="752" y="1300" type="move" name="top"/>
    </contour>
    <contour>
      <point x="752" y="0" type="move" name="bottom"/>
    </contour>
    <contour>
      <point x="752" y="0" type="move" name="bot"/>
    </contour>
  </outline>
</glyph>
<glyph name="t" format="1">
  <advance width="1179"/>
  <unicode hex="0074"/>
  <outline>
    <contour>
      <point x="820" y="-25" type="curve" smooth="yes"/>
      <point x="931" y="-25"/>
      <point x="1030" y="-7"/>
      <point x="1031" y="-7" type="curve"/>
      <point x="1031" y="223" type="line"/>
      <point x="922" y="223"/>
      <point x="827" y="241"/>
      <point x="827" y="328" type="curve" smooth="yes"/>
      <point x="827" y="1100" type="line"/>
      <point x="986" y="1100" type="line"/>
      <point x="986" y="1300" type="line"/>
      <point x="827" y="1300" type="line"/>
      <point x="827" y="1595" type="line"/>
      <point x="256" y="1595" type="line"/>
      <point x="256" y="1300" type="line"/>
      <point x="119" y="1300" type="line"/>
      <point x="119" y="1100" type="line"/>
      <point x="256" y="1100" type="line"/>
      <point x="256" y="359" type="line" smooth="yes"/>
      <point x="256" y="37"/>
      <point x="411" y="-25"/>
    </contour>
    <contour>
      <point x="583" y="1300" type="move" name="caron.alt"/>
    </contour>
    <contour>
      <point x="597" y="0" type="move" name="bot"/>
    </contour>
    <contour>
      <point x="555" y="753" type="move" name="mid"/>
    </contour>
    <contour>
      <point x="557" y="1595" type="move" name="top"/>
    </contour>
    <contour>
      <point x="597" y="0" type="move" name="bottom"/>
    </contour>
  </outline>
</glyph>
<glyph name="u" format="1">
  <advance width="1631"/>
  <unicode hex="0075"/>
  <outline>
    <contour>
      <point x="568" y="-27" type="curve" smooth="yes"/>
      <point x="718" y="-27"/>
      <point x="850" y="29"/>
      <point x="909" y="112" type="curve"/>
      <point x="946" y="0" type="line"/>
      <point x="1456" y="0" type="line"/>
      <point x="1456" y="1300" type="line"/>
      <point x="885" y="1300" type="line"/>
      <point x="885" y="195" type="line"/>
      <point x="801" y="195" type="line"/>
      <point x="718" y="195" type="line"/>
      <point x="718" y="1300" type="line"/>
      <point x="147" y="1300" type="line"/>
      <point x="147" y="356" type="line" smooth="yes"/>
      <point x="147" y="105"/>
      <point x="295" y="-26"/>
    </contour>
    <contour>
      <point x="808" y="1300" type="move" name="top"/>
    </contour>
    <contour>
      <point x="1134" y="0" type="move" name="ogonek"/>
    </contour>
  </outline>
</glyph>
<glyph name="v" format="1">
  <advance width="1524"/>
  <unicode hex="0076"/>
  <outline>
    <contour>
      <point x="361" y="0" type="line"/>
      <point x="1155" y="0" type="line"/>
      <point x="1434" y="1300" type="line"/>
      <point x="883" y="1300" type="line"/>
      <point x="779" y="356" type="line"/>
      <point x="766" y="356" type="line"/>
      <point x="632" y="1300" type="line"/>
      <point x="81" y="1300" type="line"/>
    </contour>
  </outline>
</glyph>
<glyph name="x" format="1">
  <advance width="1486"/>
  <unicode hex="0078"/>
  <outline>
    <contour>
      <point x="81" y="0" type="line"/>
      <point x="648" y="0" type="line"/>
      <point x="739" y="258" type="line"/>
      <point x="830" y="0" type="line"/>
      <point x="1397" y="0" type="line"/>
      <point x="1024" y="652" type="line"/>
      <point x="1397" y="1300" type="line"/>
      <point x="826" y="1300" type="line"/>
      <point x="739" y="1049" type="line"/>
      <point x="653" y="1300" type="line"/>
      <point x="81" y="1300" type="line"/>
      <point x="454" y="652" type="line"/>
    </contour>
  </outline>
</glyph>
<glyph name="y" format="1">
  <advance width="1501"/>
  <unicode hex="0079"/>
  <outline>
    <contour>
      <point x="566" y="-411" type="curve" smooth="yes"/>
      <point x="820" y="-411"/>
      <point x="1022" y="-324"/>
      <point x="1106" y="-3" type="curve"/>
      <point x="1416" y="1300" type="line"/>
      <point x="882" y="1300" type="line"/>
      <point x="778" y="376" type="line"/>
      <point x="770" y="376" type="line"/>
      <point x="600" y="1300" type="line"/>
      <point x="73" y="1300" type="line"/>
      <point x="444" y="41" type="line" smooth="yes"/>
      <point x="450" y="21"/>
      <point x="453" y="4"/>
      <point x="453" y="-10" type="curve" smooth="yes"/>
      <point x="453" y="-59"/>
      <point x="420" y="-77"/>
      <point x="365" y="-77" type="curve" smooth="yes"/>
      <point x="309" y="-77"/>
      <point x="231" y="-58"/>
      <point x="143" y="-33" type="curve"/>
      <point x="100" y="-344" type="line"/>
      <point x="228" y="-381"/>
      <point x="448" y="-411"/>
    </contour>
    <contour>
      <point x="747" y="1300" type="move" name="top"/>
    </contour>
    <contour>
      <point x="747" y="0" type="move" name="bot"/>
    </contour>
  </outline>
</glyph>
<glyph name="z" format="1">
  <advance width="1288"/>
  <unicode hex="007A"/>
  <outline>
    <contour>
      <point x="197" y="0" type="line"/>
      <point x="1154" y="0" type="line"/>
      <point x="1169" y="246" type="line"/>
      <point x="798" y="246" type="line"/>
      <point x="1154" y="1079" type="line"/>
      <point x="1131" y="1300" type="line"/>
      <point x="193" y="1300" type="line"/>
      <point x="204" y="1051" type="line"/>
      <point x="538" y="1051" type="line"/>
      <point x="173" y="233" type="line"/>
    </contour>
    <contour>
      <point x="656" y="1300" type="move" name="top"/>
    </contour>
    <contour>
      <point x="656" y="0" type="move" name="bot"/>
    </contour>
  </outline>
</glyph>
<glyph name="bar" format="1">
  <advance width="1185"/>
  <unicode hex="007C"/>
  <outline>
    <contour>
      <point x="301" y="-100" type="line"/>
      <point x="872" y="-100" type="line"/>
      <point x="872" y="1795" type="line"/>
      <point x="301" y="1795" type="line"/>
    </contour>
  </outline>
</glyph>
<glyph name="braceright" format="1">
  <advance width="1292"/>
  <unicode hex="007D"/>
  <outline>
    <contour>
      <point x="103" y="-330" type="line"/>
      <point x="643" y="-330"/>
      <point x="894" y="-166"/>
      <point x="931" y="366" type="curve"/>
      <point x="948" y="495"/>
      <point x="929" y="658"/>
      <point x="1119" y="658" type="curve"/>
      <point x="1119" y="937" type="line"/>
      <point x="931" y="937"/>
      <point x="948" y="1090"/>
      <point x="930" y="1228" type="curve" smooth="yes"/>
      <point x="860" y="1752"/>
      <point x="643" y="1925"/>
      <point x="104" y="1925" type="curve"/>
      <point x="104" y="1646" type="line"/>
      <point x="668" y="1646"/>
      <point x="314" y="1008"/>
      <point x="595" y="796" type="curve"/>
      <point x="314" y="612"/>
      <point x="668" y="-51"/>
      <point x="103" y="-51" type="curve"/>
    </contour>
  </outline>
</glyph>
<glyph name="asciitilde" format="1">
  <advance width="1593"/>
  <unicode hex="007E"/>
  <outline>
    <contour>
      <point x="1134" y="642" type="curve"/>
      <point x="1431" y="642" type="line"/>
      <point x="1431" y="992"/>
      <point x="1389" y="1201"/>
      <point x="1085" y="1201" type="curve" smooth="yes"/>
      <point x="831" y="1201"/>
      <point x="747" y="1008"/>
      <point x="558" y="1008" type="curve" smooth="yes"/>
      <point x="471" y="1008"/>
      <point x="446" y="1089"/>
      <point x="446" y="1176" type="curve"/>
      <point x="150" y="1176" type="line"/>
      <point x="150" y="885"/>
      <point x="212" y="616"/>
      <point x="557" y="616" type="curve" smooth="yes"/>
      <point x="792" y="616"/>
      <point x="861" y="806"/>
      <point x="1027" y="806" type="curve" smooth="yes"/>
      <point x="1105" y="806"/>
      <point x="1134" y="728"/>
    </contour>
  </outline>
</glyph>
<glyph name="exclamdown" format="1">
  <advance width="1085"/>
  <unicode hex="00A1"/>
  <outline>
    <contour>
      <point x="537" y="-35" type="curve" smooth="yes"/>
      <point x="666" y="-35"/>
      <point x="797" y="40"/>
      <point x="797" y="185" type="curve" smooth="yes"/>
      <point x="797" y="343"/>
      <point x="663" y="722"/>
      <point x="599" y="989" type="curve" smooth="yes"/>
      <point x="589" y="1034"/>
      <point x="564" y="1057"/>
      <point x="539" y="1057" type="curve" smooth="yes"/>
      <point x="514" y="1057"/>
      <point x="489" y="1035"/>
      <point x="478" y="989" type="curve"/>
      <point x="479" y="989" type="line"/>
      <point x="416" y="716"/>
      <point x="286" y="337"/>
      <point x="286" y="183" type="curve" smooth="yes"/>
      <point x="286" y="36"/>
      <point x="411" y="-35"/>
    </contour>
    <contour>
      <point x="523" y="1187" type="curve" smooth="yes"/>
      <point x="626" y="1187"/>
      <point x="729" y="1257"/>
      <point x="729" y="1398" type="curve" smooth="yes"/>
      <point x="729" y="1548"/>
      <point x="624" y="1627"/>
      <point x="521" y="1627" type="curve" smooth="yes"/>
      <point x="420" y="1627"/>
      <point x="320" y="1551"/>
      <point x="320" y="1391" type="curve"/>
      <point x="319" y="1392" type="line"/>
      <point x="319" y="1256"/>
      <point x="421" y="1187"/>
    </contour>
  </outline>
</glyph>
<glyph name="cent" format="1">
  <advance width="1651"/>
  <unicode hex="00A2"/>
  <outline>
    <contour>
      <point x="791" y="-74" type="line"/>
      <point x="870" y="-74" type="line"/>
      <point x="870" y="147" type="line"/>
      <point x="1162" y="149"/>
      <point x="1481" y="180"/>
      <point x="1481" y="523" type="curve" smooth="yes"/>
      <point x="1481" y="633" type="line"/>
      <point x="970" y="633" type="line"/>
      <point x="970" y="373" type="line"/>
      <point x="870" y="373" type="line"/>
      <point x="870" y="1119" type="line"/>
      <point x="970" y="1119" type="line"/>
      <point x="970" y="881" type="line"/>
      <point x="1481" y="881" type="line"/>
      <point x="1481" y="992" type="line" smooth="yes"/>
      <point x="1481" y="1309"/>
      <point x="1111" y="1340"/>
      <point x="870" y="1343" type="curve"/>
      <point x="870" y="1578" type="line"/>
      <point x="791" y="1578" type="line"/>
      <point x="791" y="1343" type="line"/>
      <point x="510" y="1341"/>
      <point x="171" y="1310"/>
      <point x="171" y="969" type="curve" smooth="yes"/>
      <point x="171" y="529" type="line" smooth="yes"/>
      <point x="171" y="187"/>
      <point x="492" y="149"/>
      <point x="791" y="147" type="curve"/>
    </contour>
    <contour>
      <point x="683" y="373" type="line"/>
      <point x="683" y="1119" type="line"/>
      <point x="791" y="1119" type="line"/>
      <point x="791" y="373" type="line"/>
    </contour>
  </outline>
</glyph>
<glyph name="sterling" format="1">
  <advance width="1713"/>
  <unicode hex="00A3"/>
  <outline>
    <contour>
      <point x="118" y="0" type="curve"/>
      <point x="345" y="0" type="line"/>
      <point x="576.485604729" y="2.18382645971"/>
      <point x="721.695769265" y="21.1616140473"/>
      <point x="825" y="130" type="curve"/>
      <point x="881.515469428" y="73.4845305721"/>
      <point x="984.548814559" y="0.0"/>
      <point x="1141" y="0" type="curve" smooth="yes"/>
      <point x="1439.8253565" y="0.0"/>
      <point x="1572.0" y="110.359384979"/>
      <point x="1572" y="385" type="curve" smooth="yes"/>
      <point x="1572" y="562" type="line"/>
      <point x="991" y="562" type="line"/>
      <point x="991" y="268" type="line"/>
      <point x="927.0" y="268.0" type="line"/>
      <point x="863" y="268" type="line"/>
      <point x="863" y="718" type="line"/>
      <point x="1290" y="718" type="line"/>
      <point x="1290" y="940" type="line"/>
      <point x="863" y="940" type="line"/>
      <point x="863" y="1364" type="line"/>
      <point x="916.5" y="1364.0" type="line"/>
      <point x="970" y="1364" type="line"/>
      <point x="970" y="1070" type="line"/>
      <point x="1551" y="1070" type="line"/>
      <point x="1551.0" y="1274.0"/>
      <point x="1550" y="1302"/>
      <point x="1548" y="1331" type="curve" smooth="yes"/>
      <point x="1527" y="1593"/>
      <point x="1233" y="1632"/>
      <point x="937" y="1632" type="curve" smooth="yes"/>
      <point x="507.241628707" y="1632.0"/>
      <point x="278.0" y="1482.43157141"/>
      <point x="278" y="1065" type="curve" smooth="yes"/>
      <point x="278" y="941" type="line"/>
      <point x="120" y="941" type="line"/>
      <point x="120" y="719" type="line"/>
      <point x="278" y="719" type="line"/>
      <point x="278" y="376" type="line" smooth="yes"/>
      <point x="278" y="297"/>
      <point x="191" y="275"/>
      <point x="120" y="266" type="curve"/>
      <point x="120" y="266"/>
      <point x="118" y="0"/>
    </contour>
  </outline>
</glyph>
<glyph name="currency" format="1">
  <advance width="1563"/>
  <unicode hex="00A4"/>
  <outline>
    <contour>
      <point x="288" y="189" type="line"/>
      <point x="436" y="349" type="line"/>
      <point x="531" y="315"/>
      <point x="642" y="300"/>
      <point x="780" y="299" type="curve" smooth="yes"/>
      <point x="915" y="299"/>
      <point x="1021" y="314"/>
      <point x="1118" y="346" type="curve"/>
      <point x="1264" y="188" type="line"/>
      <point x="1345" y="272" type="line"/>
      <point x="1227" y="398" type="line"/>
      <point x="1353" y="479"/>
      <point x="1407" y="605"/>
      <point x="1407" y="804" type="curve" smooth="yes"/>
      <point x="1407" y="1016"/>
      <point x="1375" y="1143"/>
      <point x="1253" y="1231" type="curve"/>
      <point x="1344" y="1330" type="line"/>
      <point x="1263" y="1414" type="line"/>
      <point x="1147" y="1287" type="line"/>
      <point x="1045" y="1326"/>
      <point x="928" y="1343"/>
      <point x="779" y="1343" type="curve" smooth="yes"/>
      <point x="628" y="1343"/>
      <point x="509" y="1326"/>
      <point x="407" y="1286" type="curve"/>
      <point x="289" y="1414" type="line"/>
      <point x="209" y="1330" type="line"/>
      <point x="301" y="1229" type="line"/>
      <point x="183" y="1142"/>
      <point x="150" y="1004"/>
      <point x="150" y="804" type="curve" smooth="yes"/>
      <point x="150" y="602"/>
      <point x="199" y="483"/>
      <point x="326" y="401" type="curve"/>
      <point x="208" y="273" type="line"/>
    </contour>
    <contour>
      <point x="719" y="570" type="line"/>
      <point x="719" y="1070" type="line"/>
      <point x="831" y="1070" type="line"/>
      <point x="831" y="570" type="line"/>
    </contour>
  </outline>
</glyph>
<glyph name="yen" format="1">
  <advance width="1644"/>
  <unicode hex="00A5"/>
  <outline>
    <contour>
      <point x="517" y="0" type="line"/>
      <point x="1122" y="0" type="line"/>
      <point x="1122" y="299" type="line"/>
      <point x="1465" y="299" type="line"/>
      <point x="1465" y="442" type="line"/>
      <point x="1122" y="442" type="line"/>
      <point x="1122" y="449" type="line"/>
      <point x="1174" y="585" type="line"/>
      <point x="1465" y="585" type="line"/>
      <point x="1465" y="728" type="line"/>
      <point x="1230" y="728" type="line"/>
      <point x="1564" y="1595" type="line"/>
      <point x="1008" y="1595" type="line"/>
      <point x="849" y="1021" type="line"/>
      <point x="832" y="815" type="line"/>
      <point x="803" y="815" type="line"/>
      <point x="786" y="1021" type="line"/>
      <point x="632" y="1595" type="line"/>
      <point x="72" y="1595" type="line"/>
      <point x="412" y="728" type="line"/>
      <point x="167" y="728" type="line"/>
      <point x="167" y="585" type="line"/>
      <point x="468" y="585" type="line"/>
      <point x="517" y="459" type="line"/>
      <point x="517" y="442" type="line"/>
      <point x="167" y="442" type="line"/>
      <point x="167" y="299" type="line"/>
      <point x="517" y="299" type="line"/>
    </contour>
  </outline>
</glyph>
<glyph name="brokenbar" format="1">
  <advance width="1185"/>
  <unicode hex="00A6"/>
  <outline>
    <contour>
      <point x="301" y="-255" type="line"/>
      <point x="872" y="-255" type="line"/>
      <point x="872" y="656" type="line"/>
      <point x="301" y="656" type="line"/>
    </contour>
    <contour>
      <point x="301" y="797" type="line"/>
      <point x="872" y="797" type="line"/>
      <point x="872" y="1708" type="line"/>
      <point x="301" y="1708" type="line"/>
    </contour>
  </outline>
</glyph>
<glyph name="section" format="1">
  <advance width="1583"/>
  <unicode hex="00A7"/>
  <outline>
    <contour>
      <point x="770" y="-40" type="curve" smooth="yes"/>
      <point x="1108" y="-40"/>
      <point x="1384" y="3"/>
      <point x="1384" y="401" type="curve" smooth="yes"/>
      <point x="1384" y="532"/>
      <point x="1323" y="612"/>
      <point x="1243" y="660" type="curve" smooth="yes"/>
      <point x="1224" y="672"/>
      <point x="1205" y="677"/>
      <point x="1189" y="685" type="curve"/>
      <point x="1206" y="685"/>
      <point x="1229" y="696"/>
      <point x="1248" y="705" type="curve" smooth="yes"/>
      <point x="1334" y="745"/>
      <point x="1400" y="820"/>
      <point x="1400" y="949" type="curve" smooth="yes"/>
      <point x="1400" y="1212"/>
      <point x="1071" y="1223"/>
      <point x="882" y="1231" type="curve" smooth="yes"/>
      <point x="842" y="1233"/>
      <point x="781" y="1230"/>
      <point x="763" y="1248" type="curve"/>
      <point x="763" y="1497" type="line"/>
      <point x="836" y="1497" type="line"/>
      <point x="836" y="1306" type="line"/>
      <point x="1388" y="1306" type="line"/>
      <point x="1388" y="1342"/>
      <point x="1389" y="1376"/>
      <point x="1389" y="1411" type="curve" smooth="yes"/>
      <point x="1389" y="1749"/>
      <point x="1070" y="1770"/>
      <point x="808" y="1770" type="curve" smooth="yes"/>
      <point x="470" y="1770"/>
      <point x="194" y="1727"/>
      <point x="194" y="1329" type="curve" smooth="yes"/>
      <point x="194" y="1179"/>
      <point x="271" y="1093"/>
      <point x="371" y="1046" type="curve"/>
      <point x="370" y="1045"/>
      <point x="364" y="1043"/>
      <point x="354" y="1039" type="curve" smooth="yes"/>
      <point x="256" y="1003"/>
      <point x="179" y="919"/>
      <point x="179" y="783" type="curve" smooth="yes"/>
      <point x="179" y="555"/>
      <point x="337" y="487"/>
      <point x="561" y="487" type="curve" smooth="yes"/>
      <point x="816" y="487" type="line"/>
      <point x="816" y="235" type="line"/>
      <point x="743" y="235" type="line"/>
      <point x="743" y="426" type="line"/>
      <point x="192" y="426" type="line"/>
      <point x="192" y="390"/>
      <point x="191" y="356"/>
      <point x="191" y="321" type="curve" smooth="yes"/>
      <point x="191" y="-18"/>
      <point x="507" y="-40"/>
    </contour>
    <contour>
      <point x="754" y="748" type="line"/>
      <point x="754" y="971" type="line"/>
      <point x="823" y="971" type="line"/>
      <point x="823" y="748" type="line"/>
    </contour>
  </outline>
</glyph>
<glyph name="dieresis" format="1">
  <advance width="1463"/>
  <unicode hex="00A8"/>
  <outline>
    <contour>
      <point x="364" y="1435" type="line"/>
      <point x="774" y="1435" type="line"/>
      <point x="774" y="1771" type="line"/>
      <point x="364" y="1771" type="line"/>
    </contour>
    <contour>
      <point x="1007" y="1435" type="line"/>
      <point x="1418" y="1435" type="line"/>
      <point x="1418" y="1771" type="line"/>
      <point x="1007" y="1771" type="line"/>
    </contour>
    <contour>
      <point x="889" y="1300" type="move" name="_top"/>
    </contour>
  </outline>
</glyph>
<glyph name="copyright" format="1">
  <advance width="2156"/>
  <unicode hex="00A9"/>
  <outline>
    <contour>
      <point x="1057" y="272" type="curve" smooth="yes"/>
      <point x="1302" y="272"/>
      <point x="1452" y="312"/>
      <point x="1452" y="542" type="curve" smooth="yes"/>
      <point x="1452" y="749" type="line"/>
      <point x="1175" y="749" type="line"/>
      <point x="1175" y="432" type="line"/>
      <point x="976" y="432" type="line"/>
      <point x="976" y="1222" type="line"/>
      <point x="1175" y="1222" type="line"/>
      <point x="1175" y="913" type="line"/>
      <point x="1452" y="913" type="line"/>
      <point x="1452" y="1111" type="line" smooth="yes"/>
      <point x="1452" y="1366"/>
      <point x="1254" y="1381"/>
      <point x="1057" y="1381" type="curve" smooth="yes"/>
      <point x="828" y="1381"/>
      <point x="696" y="1334"/>
      <point x="696" y="1107" type="curve" smooth="yes"/>
      <point x="696" y="547" type="line" smooth="yes"/>
      <point x="696" y="315"/>
      <point x="842" y="272"/>
    </contour>
    <contour>
      <point x="1073" y="68" type="curve" smooth="yes"/>
      <point x="664" y="68"/>
      <point x="464" y="169"/>
      <point x="464" y="535" type="curve" smooth="yes"/>
      <point x="464" y="1114" type="line" smooth="yes"/>
      <point x="464" y="1471"/>
      <point x="661" y="1573"/>
      <point x="1073" y="1573" type="curve" smooth="yes"/>
      <point x="1416" y="1573"/>
      <point x="1682" y="1500"/>
      <point x="1682" y="1165" type="curve" smooth="yes"/>
      <point x="1682" y="482" type="line" smooth="yes"/>
      <point x="1682" y="156"/>
      <point x="1441" y="68"/>
    </contour>
    <contour>
      <point x="1073" y="-101" type="curve" smooth="yes"/>
      <point x="1518" y="-101"/>
      <point x="1921" y="14"/>
      <point x="1921" y="539" type="curve" smooth="yes"/>
      <point x="1921" y="1116" type="line" smooth="yes"/>
      <point x="1921" y="1610"/>
      <point x="1582" y="1749"/>
      <point x="1073" y="1749" type="curve" smooth="yes"/>
      <point x="631" y="1749"/>
      <point x="225" y="1638"/>
      <point x="225" y="1116" type="curve" smooth="yes"/>
      <point x="225" y="539" type="line" smooth="yes"/>
      <point x="225" y="42"/>
      <point x="562" y="-101"/>
    </contour>
  </outline>
</glyph>
<glyph name="logicalnot" format="1">
  <advance width="1524"/>
  <unicode hex="00AC"/>
  <outline>
    <contour>
      <point x="1063" y="300" type="line"/>
      <point x="1292" y="300" type="line"/>
      <point x="1292" y="1105" type="line"/>
      <point x="196" y="1105" type="line"/>
      <point x="196" y="791" type="line"/>
      <point x="1063" y="791" type="line"/>
    </contour>
  </outline>
</glyph>
<glyph name="macron" format="1">
  <advance width="1310"/>
  <unicode hex="00AF"/>
  <outline>
    <contour>
      <point x="364" y="1507" type="line"/>
      <point x="1197" y="1507" type="line"/>
      <point x="1197" y="1738" type="line"/>
      <point x="364" y="1738" type="line"/>
    </contour>
    <contour>
      <point x="783" y="1624" type="move" name="_mid"/>
    </contour>
    <contour>
      <point x="777" y="1300" type="move" name="_top"/>
    </contour>
  </outline>
</glyph>
<glyph name="plusminus" format="1">
  <advance width="1498"/>
  <unicode hex="00B1"/>
  <outline>
    <contour>
      <point x="552" y="503" type="line"/>
      <point x="944" y="503" type="line"/>
      <point x="944" y="881" type="line"/>
      <point x="1308" y="881" type="line"/>
      <point x="1308" y="1214" type="line"/>
      <point x="944" y="1214" type="line"/>
      <point x="944" y="1595" type="line"/>
      <point x="552" y="1595" type="line"/>
      <point x="552" y="1214" type="line"/>
      <point x="187" y="1214" type="line"/>
      <point x="187" y="881" type="line"/>
      <point x="552" y="881" type="line"/>
    </contour>
    <contour>
      <point x="325" y="-1" type="line"/>
      <point x="1159" y="-1" type="line"/>
      <point x="1159" y="300" type="line"/>
      <point x="325" y="300" type="line"/>
    </contour>
  </outline>
</glyph>
<glyph name="uni00B2" format="1">
  <advance width="1271"/>
  <unicode hex="00B2"/>
  <outline>
    <contour>
      <point x="220" y="134" type="line"/>
      <point x="1017" y="134" type="line"/>
      <point x="1017" y="332" type="line"/>
      <point x="584" y="332" type="line"/>
      <point x="584" y="404"/>
      <point x="664" y="443"/>
      <point x="734" y="474" type="curve" smooth="yes"/>
      <point x="899" y="548"/>
      <point x="1057" y="634"/>
      <point x="1057" y="876" type="curve" smooth="yes"/>
      <point x="1057" y="1142"/>
      <point x="903" y="1209"/>
      <point x="641" y="1209" type="curve" smooth="yes"/>
      <point x="398" y="1209"/>
      <point x="219" y="1148"/>
      <point x="219" y="878" type="curve" smooth="yes"/>
      <point x="219" y="864"/>
      <point x="220" y="850"/>
      <point x="220" y="836" type="curve"/>
      <point x="584" y="836" type="line"/>
      <point x="584" y="1030" type="line"/>
      <point x="684" y="1030" type="line"/>
      <point x="684" y="877" type="line" smooth="yes"/>
      <point x="684" y="823"/>
      <point x="610" y="793"/>
      <point x="548" y="768" type="curve" smooth="yes"/>
      <point x="354" y="690"/>
      <point x="220" y="575"/>
      <point x="220" y="313" type="curve" smooth="yes"/>
    </contour>
  </outline>
</glyph>
<glyph name="uni00B3" format="1">
  <advance width="1287"/>
  <unicode hex="00B3"/>
  <outline>
    <contour>
      <point x="638" y="100" type="curve" smooth="yes"/>
      <point x="934" y="100"/>
      <point x="1069" y="193"/>
      <point x="1069" y="439" type="curve" smooth="yes"/>
      <point x="1069" y="547"/>
      <point x="1023" y="633"/>
      <point x="929" y="669" type="curve"/>
      <point x="1012" y="705"/>
      <point x="1067" y="773"/>
      <point x="1067" y="881" type="curve" smooth="yes"/>
      <point x="1067" y="1128"/>
      <point x="907" y="1205"/>
      <point x="637" y="1205" type="curve" smooth="yes"/>
      <point x="357" y="1205"/>
      <point x="211" y="1122"/>
      <point x="211" y="859" type="curve" smooth="yes"/>
      <point x="211" y="841"/>
      <point x="212" y="823"/>
      <point x="214" y="804" type="curve"/>
      <point x="580" y="804" type="line"/>
      <point x="580" y="1027" type="line"/>
      <point x="693" y="1027" type="line"/>
      <point x="693" y="743" type="line"/>
      <point x="522" y="743" type="line"/>
      <point x="522" y="595" type="line"/>
      <point x="693" y="595" type="line"/>
      <point x="693" y="282" type="line"/>
      <point x="580" y="282" type="line"/>
      <point x="580" y="532" type="line"/>
      <point x="214" y="532" type="line"/>
      <point x="212" y="511"/>
      <point x="211" y="491"/>
      <point x="211" y="471" type="curve" smooth="yes"/>
      <point x="211" y="221"/>
      <point x="342" y="100"/>
    </contour>
  </outline>
</glyph>
<glyph name="acute" format="1">
  <advance width="1287"/>
  <unicode hex="00B4"/>
  <outline>
    <contour>
      <point x="459" y="1476" type="curve" smooth="yes"/>
      <point x="664" y="1538"/>
      <point x="951" y="1610"/>
      <point x="1055" y="1670" type="curve" smooth="yes"/>
      <point x="1136" y="1717"/>
      <point x="1171" y="1787"/>
      <point x="1171" y="1852" type="curve" smooth="yes"/>
      <point x="1171" y="1946"/>
      <point x="1100" y="2030"/>
      <point x="997" y="2030" type="curve" smooth="yes"/>
      <point x="959" y="2030"/>
      <point x="917" y="2019"/>
      <point x="872" y="1993" type="curve" smooth="yes"/>
      <point x="771" y="1935"/>
      <point x="561" y="1729"/>
      <point x="398" y="1580" type="curve" smooth="yes"/>
      <point x="363.375903726" y="1549.70391576"/>
      <point x="357.547526391" y="1519.15811425"/>
      <point x="369.905870896" y="1498.36228238" type="curve" smooth="yes"/>
      <point x="383.858293627" y="1474.8840376"/>
      <point x="420.078302756" y="1461.84665555"/>
    </contour>
    <contour>
      <point x="536" y="1300" type="move" name="_top"/>
    </contour>
  </outline>
</glyph>
<glyph name="cedilla" format="1">
  <advance width="1065"/>
  <unicode hex="00B8"/>
  <outline>
    <contour>
      <point x="603" y="-552" type="curve"/>
      <point x="731.145" y="-552"/>
      <point x="853" y="-487.427"/>
      <point x="853" y="-354" type="curve"/>
      <point x="853" y="-198.639"/>
      <point x="764.561" y="-167.192"/>
      <point x="637.201" y="-149.138" type="curve"/>
      <point x="686.533" y="20" type="line"/>
      <point x="566.131" y="20" type="line"/>
      <point x="526.165" y="-131.448" type="line"/>
      <point x="498.693" y="-234.79"/>
      <point x="486.423" y="-286.008"/>
      <point x="486.909" y="-287.721" type="curve"/>
      <point x="581.298" y="-287.457"/>
      <point x="627" y="-315.704"/>
      <point x="627" y="-366" type="curve"/>
      <point x="627" y="-398.707"/>
      <point x="606.834" y="-410"/>
      <point x="573" y="-410" type="curve"/>
      <point x="509.516" y="-410"/>
      <point x="414.935" y="-360.837"/>
      <point x="409.65" y="-359.469" type="curve"/>
      <point x="355.562" y="-463.042" type="line"/>
      <point x="421.438" y="-522.28"/>
      <point x="515.702" y="-552"/>
    </contour>
    <contour>
      <point x="618" y="0" type="move" name="_bot"/>
    </contour>
  </outline>
</glyph>
<glyph name="uni00B9" format="1">
  <advance width="1035"/>
  <unicode hex="00B9"/>
  <outline>
    <contour>
      <point x="355" y="130" type="line"/>
      <point x="750" y="130" type="line"/>
      <point x="750" y="1170" type="line"/>
      <point x="438" y="1170" type="line"/>
      <point x="381" y="1135"/>
      <point x="301" y="1115"/>
      <point x="211" y="1115" type="curve"/>
      <point x="211" y="971" type="line"/>
      <point x="355" y="971" type="line"/>
    </contour>
  </outline>
</glyph>
<glyph name="ordmasculine" format="1">
  <advance width="1433"/>
  <unicode hex="00BA"/>
  <outline>
    <contour>
      <point x="714" y="99" type="curve"/>
      <point x="960" y="102"/>
      <point x="1235" y="110"/>
      <point x="1235" y="412" type="curve" smooth="yes"/>
      <point x="1235" y="892" type="line" smooth="yes"/>
      <point x="1235" y="1180"/>
      <point x="966" y="1204"/>
      <point x="715" y="1204" type="curve" smooth="yes"/>
      <point x="477" y="1204"/>
      <point x="188" y="1185"/>
      <point x="188" y="893" type="curve" smooth="yes"/>
      <point x="188" y="413" type="line" smooth="yes"/>
      <point x="188" y="115"/>
      <point x="460" y="99"/>
    </contour>
    <contour>
      <point x="645" y="317" type="line"/>
      <point x="645" y="1014" type="line"/>
      <point x="778" y="1014" type="line"/>
      <point x="778" y="317" type="line"/>
    </contour>
  </outline>
</glyph>
<glyph name="onequarter" format="1">
  <advance width="2485"/>
  <unicode hex="00BC"/>
  <outline>
    <contour>
      <point x="2158" y="130" type="line"/>
      <point x="2517" y="130" type="line"/>
      <point x="2517" y="760" type="line"/>
      <point x="2158" y="760" type="line"/>
      <point x="2158" y="535" type="line"/>
      <point x="2028" y="535" type="line"/>
      <point x="2028" y="571" type="line"/>
      <point x="2197" y="1172" type="line"/>
      <point x="1812" y="1172" type="line"/>
      <point x="1642" y="571" type="line"/>
      <point x="1642" y="291" type="line"/>
      <point x="2158" y="291" type="line"/>
    </contour>
    <contour>
      <point x="193" y="430" type="line"/>
      <point x="588" y="430" type="line"/>
      <point x="588" y="1470" type="line"/>
      <point x="276" y="1470" type="line"/>
      <point x="219" y="1435"/>
      <point x="139" y="1415"/>
      <point x="49" y="1415" type="curve"/>
      <point x="49" y="1271" type="line"/>
      <point x="193" y="1271" type="line"/>
    </contour>
    <contour>
      <point x="769" y="0" type="line"/>
      <point x="1204" y="0" type="line"/>
      <point x="1555" y="1595" type="line"/>
      <point x="1121" y="1595" type="line"/>
    </contour>
  </outline>
</glyph>
<glyph name="onehalf" format="1">
  <advance width="2531"/>
  <unicode hex="00BD"/>
  <outline>
    <contour>
      <point x="1703" y="134" type="line"/>
      <point x="2500" y="134" type="line"/>
      <point x="2500" y="332" type="line"/>
      <point x="2067" y="332" type="line"/>
      <point x="2067" y="404"/>
      <point x="2147" y="443"/>
      <point x="2217" y="474" type="curve" smooth="yes"/>
      <point x="2382" y="548"/>
      <point x="2540" y="634"/>
      <point x="2540" y="876" type="curve" smooth="yes"/>
      <point x="2540" y="1142"/>
      <point x="2386" y="1209"/>
      <point x="2124" y="1209" type="curve" smooth="yes"/>
      <point x="1881" y="1209"/>
      <point x="1702" y="1148"/>
      <point x="1702" y="878" type="curve" smooth="yes"/>
      <point x="1702" y="864"/>
      <point x="1703" y="850"/>
      <point x="1703" y="836" type="curve"/>
      <point x="2067" y="836" type="line"/>
      <point x="2067" y="1030" type="line"/>
      <point x="2167" y="1030" type="line"/>
      <point x="2167" y="877" type="line" smooth="yes"/>
      <point x="2167" y="823"/>
      <point x="2093" y="793"/>
      <point x="2031" y="768" type="curve" smooth="yes"/>
      <point x="1837" y="690"/>
      <point x="1703" y="575"/>
      <point x="1703" y="313" type="curve" smooth="yes"/>
    </contour>
    <contour>
      <point x="193" y="430" type="line"/>
      <point x="588" y="430" type="line"/>
      <point x="588" y="1470" type="line"/>
      <point x="276" y="1470" type="line"/>
      <point x="219" y="1435"/>
      <point x="139" y="1415"/>
      <point x="49" y="1415" type="curve"/>
      <point x="49" y="1271" type="line"/>
      <point x="193" y="1271" type="line"/>
    </contour>
    <contour>
      <point x="784" y="0" type="line"/>
      <point x="1219" y="0" type="line"/>
      <point x="1570" y="1595" type="line"/>
      <point x="1136" y="1595" type="line"/>
    </contour>
  </outline>
</glyph>
<glyph name="threequarters" format="1">
  <advance width="2523"/>
  <unicode hex="00BE"/>
  <outline>
    <contour>
      <point x="322" y="394" type="curve" smooth="yes"/>
      <point x="618" y="394"/>
      <point x="753" y="487"/>
      <point x="753" y="733" type="curve" smooth="yes"/>
      <point x="753" y="841"/>
      <point x="707" y="927"/>
      <point x="613" y="963" type="curve"/>
      <point x="696" y="999"/>
      <point x="751" y="1067"/>
      <point x="751" y="1175" type="curve" smooth="yes"/>
      <point x="751" y="1422"/>
      <point x="591" y="1499"/>
      <point x="321" y="1499" type="curve" smooth="yes"/>
      <point x="41" y="1499"/>
      <point x="-103" y="1416"/>
      <point x="-103" y="1153" type="curve" smooth="yes"/>
      <point x="-103" y="1135"/>
      <point x="-102" y="1117"/>
      <point x="-100" y="1098" type="curve"/>
      <point x="264" y="1098" type="line"/>
      <point x="264" y="1321" type="line"/>
      <point x="377" y="1321" type="line"/>
      <point x="377" y="1037" type="line"/>
      <point x="206" y="1037" type="line"/>
      <point x="206" y="889" type="line"/>
      <point x="377" y="889" type="line"/>
      <point x="377" y="576" type="line"/>
      <point x="264" y="576" type="line"/>
      <point x="264" y="826" type="line"/>
      <point x="-100" y="826" type="line"/>
      <point x="-102" y="805"/>
      <point x="-103" y="785"/>
      <point x="-103" y="765" type="curve" smooth="yes"/>
      <point x="-103" y="515"/>
      <point x="26" y="394"/>
    </contour>
    <contour>
      <point x="2225" y="130" type="line"/>
      <point x="2584" y="130" type="line"/>
      <point x="2584" y="760" type="line"/>
      <point x="2225" y="760" type="line"/>
      <point x="2225" y="535" type="line"/>
      <point x="2095" y="535" type="line"/>
      <point x="2095" y="571" type="line"/>
      <point x="2264" y="1172" type="line"/>
      <point x="1879" y="1172" type="line"/>
      <point x="1709" y="571" type="line"/>
      <point x="1709" y="291" type="line"/>
      <point x="2225" y="291" type="line"/>
    </contour>
    <contour>
      <point x="876" y="0" type="line"/>
      <point x="1311" y="0" type="line"/>
      <point x="1662" y="1595" type="line"/>
      <point x="1228" y="1595" type="line"/>
    </contour>
  </outline>
</glyph>
<glyph name="questiondown" format="1">
  <advance width="1300"/>
  <unicode hex="00BF"/>
  <outline>
    <contour>
      <point x="673" y="-34" type="curve" smooth="yes"/>
      <point x="769" y="-34"/>
      <point x="891" y="-13"/>
      <point x="1044" y="36" type="curve"/>
      <point x="1008" y="383" type="line"/>
      <point x="925" y="348"/>
      <point x="862" y="334"/>
      <point x="814" y="334" type="curve" smooth="yes"/>
      <point x="711" y="334"/>
      <point x="672" y="386"/>
      <point x="672" y="448" type="curve" smooth="yes"/>
      <point x="672" y="457"/>
      <point x="673" y="466"/>
      <point x="674" y="475" type="curve" smooth="yes"/>
      <point x="701" y="619"/>
      <point x="819" y="784"/>
      <point x="819" y="1016" type="curve" smooth="yes"/>
      <point x="819" y="1062"/>
      <point x="799" y="1088"/>
      <point x="758" y="1088" type="curve" smooth="yes"/>
      <point x="731" y="1088"/>
      <point x="701" y="1074"/>
      <point x="696" y="1031" type="curve" smooth="yes"/>
      <point x="656" y="686"/>
      <point x="240" y="589"/>
      <point x="240" y="285" type="curve" smooth="yes"/>
      <point x="240" y="125"/>
      <point x="338" y="-34"/>
    </contour>
    <contour>
      <point x="756" y="1217" type="curve" smooth="yes"/>
      <point x="858" y="1217"/>
      <point x="960" y="1287"/>
      <point x="960" y="1427" type="curve" smooth="yes"/>
      <point x="960" y="1567"/>
      <point x="858" y="1637"/>
      <point x="756" y="1637" type="curve" smooth="yes"/>
      <point x="654" y="1637"/>
      <point x="552" y="1567"/>
      <point x="552" y="1427" type="curve" smooth="yes"/>
      <point x="552" y="1287"/>
      <point x="654" y="1217"/>
    </contour>
  </outline>
</glyph>
<glyph name="AE" format="1">
  <advance width="1896"/>
  <unicode hex="00C6"/>
  <outline>
    <contour>
      <point x="-11" y="0" type="line"/>
      <point x="612" y="0" type="line"/>
      <point x="723" y="348" type="line"/>
      <point x="936" y="348" type="line"/>
      <point x="936" y="0" type="line"/>
      <point x="1895" y="0" type="line"/>
      <point x="1895" y="244" type="line"/>
      <point x="1554" y="244" type="line"/>
      <point x="1554" y="711" type="line"/>
      <point x="1872" y="711" type="line"/>
      <point x="1872" y="961" type="line"/>
      <point x="1554" y="961" type="line"/>
      <point x="1554" y="1354" type="line"/>
      <point x="1895" y="1354" type="line"/>
      <point x="1895" y="1595" type="line"/>
      <point x="622" y="1595" type="line"/>
    </contour>
    <contour>
      <point x="796" y="578" type="line"/>
      <point x="936" y="1001" type="line"/>
      <point x="936" y="578" type="line"/>
    </contour>
    <contour>
      <point x="955" y="1595" type="move" name="top"/>
    </contour>
  </outline>
</glyph>
<glyph name="Oslash" format="1">
  <advance width="1735"/>
  <unicode hex="00D8"/>
  <outline>
    <contour>
      <point x="323" y="-166" type="line"/>
      <point x="431" y="10" type="line"/>
      <point x="551" y="-31"/>
      <point x="702" y="-41"/>
      <point x="860" y="-41" type="curve"/>
      <point x="859" y="-39" type="line"/>
      <point x="1222" y="-39"/>
      <point x="1553" y="16"/>
      <point x="1553" y="370" type="curve" smooth="yes"/>
      <point x="1553" y="1226" type="line" smooth="yes"/>
      <point x="1553" y="1388"/>
      <point x="1484" y="1487"/>
      <point x="1373" y="1546" type="curve"/>
      <point x="1477" y="1716" type="line"/>
      <point x="1356" y="1817" type="line"/>
      <point x="1222" y="1599" type="line"/>
      <point x="1114" y="1623"/>
      <point x="989" y="1630"/>
      <point x="859" y="1630" type="curve" smooth="yes"/>
      <point x="498" y="1630"/>
      <point x="171" y="1578"/>
      <point x="171" y="1226" type="curve" smooth="yes"/>
      <point x="171" y="370" type="line" smooth="yes"/>
      <point x="171" y="238"/>
      <point x="216" y="147"/>
      <point x="291" y="85" type="curve"/>
      <point x="195" y="-70" type="line"/>
    </contour>
    <contour>
      <point x="776" y="235" type="line"/>
      <point x="776" y="1362" type="line"/>
      <point x="949" y="1362" type="line"/>
      <point x="949" y="235" type="line"/>
    </contour>
    <contour>
      <point x="852" y="1595" type="move" name="top"/>
    </contour>
  </outline>
</glyph>
<glyph name="Thorn" format="1">
  <advance width="1694"/>
  <unicode hex="00DE"/>
  <outline>
    <contour>
      <point x="187" y="0" type="line"/>
      <point x="789" y="0" type="line"/>
      <point x="789" y="250" type="line"/>
      <point x="926" y="250" type="line" smooth="yes"/>
      <point x="1272.50658079" y="250.0"/>
      <point x="1552.0" y="334.593042839"/>
      <point x="1552" y="641" type="curve" smooth="yes"/>
      <point x="1552" y="1022" type="line" smooth="yes"/>
      <point x="1552.0" y="1363.15736529"/>
      <point x="1314.27357574" y="1413.0"/>
      <point x="926" y="1413" type="curve" smooth="yes"/>
      <point x="789" y="1413" type="line"/>
      <point x="789" y="1599" type="line"/>
      <point x="187" y="1599" type="line"/>
    </contour>
    <contour>
      <point x="789" y="482" type="line"/>
      <point x="789" y="1182" type="line"/>
      <point x="952" y="1182" type="line"/>
      <point x="952.0" y="832.0" type="line"/>
      <point x="952" y="482" type="line"/>
    </contour>
  </outline>
</glyph>
<glyph name="germandbls" format="1">
  <advance width="1555"/>
  <unicode hex="00DF"/>
  <outline>
    <contour>
      <point x="173" y="-205" type="line"/>
      <point x="669" y="-205" type="line"/>
      <point x="669" y="1358" type="line"/>
      <point x="905" y="1358" type="line"/>
      <point x="905" y="981" type="line"/>
      <point x="793" y="981" type="line"/>
      <point x="793" y="750" type="line"/>
      <point x="905" y="750" type="line"/>
      <point x="905" y="194" type="line"/>
      <point x="766" y="194" type="line"/>
      <point x="766" y="-37" type="line"/>
      <point x="850" y="-37" type="line" smooth="yes"/>
      <point x="1130" y="-37"/>
      <point x="1401" y="-16"/>
      <point x="1401" y="258" type="curve" smooth="yes"/>
      <point x="1401" y="553" type="line" smooth="yes"/>
      <point x="1401" y="759"/>
      <point x="1251" y="859"/>
      <point x="1060" y="870" type="curve"/>
      <point x="1228" y="883"/>
      <point x="1332" y="985"/>
      <point x="1332" y="1170" type="curve" smooth="yes"/>
      <point x="1332" y="1235"/>
      <point x="1328" y="1297"/>
      <point x="1310" y="1350" type="curve" smooth="yes"/>
      <point x="1246" y="1538"/>
      <point x="1049" y="1595"/>
      <point x="789" y="1595" type="curve" smooth="yes"/>
      <point x="453" y="1595"/>
      <point x="173" y="1546"/>
      <point x="173" y="1217" type="curve" smooth="yes"/>
    </contour>
  </outline>
</glyph>
<glyph name="ae" format="1">
  <advance width="2189"/>
  <unicode hex="00E6"/>
  <outline>
    <contour>
      <point x="571" y="-36" type="curve" smooth="yes"/>
      <point x="782" y="-36"/>
      <point x="942" y="2"/>
      <point x="1073" y="77" type="curve"/>
      <point x="1157" y="11"/>
      <point x="1268" y="-36"/>
      <point x="1421" y="-36" type="curve" smooth="yes"/>
      <point x="1775" y="-36"/>
      <point x="2061" y="14"/>
      <point x="2068" y="354" type="curve"/>
      <point x="2068" y="501" type="line"/>
      <point x="1497" y="501" type="line"/>
      <point x="1497" y="252" type="line"/>
      <point x="1353" y="252" type="line"/>
      <point x="1353" y="606" type="line"/>
      <point x="2069" y="606" type="line"/>
      <point x="2069" y="956" type="line" smooth="yes"/>
      <point x="2069" y="1139"/>
      <point x="2005" y="1222"/>
      <point x="1871" y="1279" type="curve" smooth="yes"/>
      <point x="1754" y="1328"/>
      <point x="1607" y="1345"/>
      <point x="1425" y="1345" type="curve" smooth="yes"/>
      <point x="1276" y="1345"/>
      <point x="1153" y="1320"/>
      <point x="1066" y="1263" type="curve"/>
      <point x="1068" y="1261" type="line"/>
      <point x="987" y="1320"/>
      <point x="865" y="1343"/>
      <point x="719" y="1343" type="curve" smooth="yes"/>
      <point x="418" y="1343"/>
      <point x="123" y="1299"/>
      <point x="123" y="1004" type="curve" smooth="yes"/>
      <point x="123" y="965"/>
      <point x="128" y="929"/>
      <point x="134" y="894" type="curve"/>
      <point x="310" y="901"/>
      <point x="482" y="908"/>
      <point x="658" y="915" type="curve"/>
      <point x="658" y="1054" type="line"/>
      <point x="781" y="1054" type="line"/>
      <point x="781" y="783" type="line"/>
      <point x="712" y="808"/>
      <point x="635" y="824"/>
      <point x="532" y="824" type="curve" smooth="yes"/>
      <point x="223" y="824"/>
      <point x="63" y="692"/>
      <point x="63" y="388" type="curve" smooth="yes"/>
      <point x="63" y="92"/>
      <point x="266" y="-36"/>
    </contour>
    <contour>
      <point x="631" y="252" type="line"/>
      <point x="631" y="604" type="line"/>
      <point x="781" y="604" type="line"/>
      <point x="781" y="252" type="line"/>
    </contour>
    <contour>
      <point x="1353" y="801" type="line"/>
      <point x="1353" y="1055" type="line"/>
      <point x="1497" y="1055" type="line"/>
      <point x="1497" y="801" type="line"/>
    </contour>
    <contour>
      <point x="1066" y="1300" type="move" name="top"/>
    </contour>
  </outline>
</glyph>
<glyph name="eth" format="1">
  <advance width="1555"/>
  <unicode hex="00F0"/>
  <outline>
    <contour>
      <point x="771" y="-37" type="curve" smooth="yes"/>
      <point x="943" y="-37"/>
      <point x="1080" y="-17"/>
      <point x="1182" y="45" type="curve" smooth="yes"/>
      <point x="1389" y="171"/>
      <point x="1400" y="471"/>
      <point x="1400" y="807" type="curve" smooth="yes"/>
      <point x="1400" y="1163"/>
      <point x="1237" y="1402"/>
      <point x="1054" y="1578" type="curve"/>
      <point x="1222" y="1694" type="line"/>
      <point x="1151" y="1817" type="line"/>
      <point x="943" y="1674" type="line"/>
      <point x="830" y="1762"/>
      <point x="711" y="1832"/>
      <point x="574" y="1889" type="curve"/>
      <point x="573" y="1887" type="line"/>
      <point x="349" y="1546" type="line"/>
      <point x="416" y="1510" type="line" smooth="yes"/>
      <point x="466" y="1483"/>
      <point x="519" y="1449"/>
      <point x="570" y="1416" type="curve"/>
      <point x="365" y="1275" type="line"/>
      <point x="435" y="1151" type="line"/>
      <point x="687" y="1324" type="line"/>
      <point x="744" y="1273"/>
      <point x="826" y="1199"/>
      <point x="826" y="1097" type="curve"/>
      <point x="686" y="1097" type="line" smooth="yes"/>
      <point x="533" y="1097"/>
      <point x="412" y="1075"/>
      <point x="321" y="1021" type="curve" smooth="yes"/>
      <point x="172" y="933"/>
      <point x="135" y="761"/>
      <point x="135" y="525" type="curve" smooth="yes"/>
      <point x="135" y="408"/>
      <point x="143" y="306"/>
      <point x="175" y="221" type="curve" smooth="yes"/>
      <point x="254" y="12"/>
      <point x="477" y="-37"/>
    </contour>
    <contour>
      <point x="703" y="238" type="line"/>
      <point x="703" y="828" type="line"/>
      <point x="825" y="828" type="line"/>
      <point x="825" y="238" type="line"/>
    </contour>
  </outline>
</glyph>
<glyph name="divide" format="1">
  <advance width="1203"/>
  <unicode hex="00F7"/>
  <outline>
    <contour>
      <point x="601" y="134" type="curve" smooth="yes"/>
      <point x="687" y="134"/>
      <point x="741" y="203"/>
      <point x="741" y="288" type="curve" smooth="yes"/>
      <point x="741" y="366"/>
      <point x="685" y="442"/>
      <point x="615" y="442" type="curve" smooth="yes"/>
      <point x="514" y="442"/>
      <point x="461" y="383"/>
      <point x="461" y="288" type="curve" smooth="yes"/>
      <point x="461" y="193"/>
      <point x="520" y="134"/>
    </contour>
    <contour>
      <point x="257" y="614" type="line"/>
      <point x="944" y="614" type="line"/>
      <point x="944" y="753" type="line"/>
      <point x="257" y="753" type="line"/>
    </contour>
    <contour>
      <point x="601" y="925" type="curve" smooth="yes"/>
      <point x="689" y="925"/>
      <point x="741" y="991"/>
      <point x="741" y="1079" type="curve" smooth="yes"/>
      <point x="741" y="1157"/>
      <point x="685" y="1233"/>
      <point x="615" y="1233" type="curve" smooth="yes"/>
      <point x="514" y="1233"/>
      <point x="461" y="1175"/>
      <point x="461" y="1079" type="curve" smooth="yes"/>
      <point x="461" y="984"/>
      <point x="519" y="925"/>
    </contour>
  </outline>
</glyph>
<glyph name="oslash" format="1">
  <advance width="1631"/>
  <unicode hex="00F8"/>
  <outline>
    <contour>
      <point x="193" y="-39" type="line"/>
      <point x="294" y="65" type="line"/>
      <point x="422" y="-18"/>
      <point x="601" y="-39"/>
      <point x="823" y="-39" type="curve" smooth="yes"/>
      <point x="1007" y="-39"/>
      <point x="1157" y="-22"/>
      <point x="1276" y="27" type="curve" smooth="yes"/>
      <point x="1409" y="82"/>
      <point x="1474" y="172"/>
      <point x="1474" y="352" type="curve" smooth="yes"/>
      <point x="1474" y="952" type="line" smooth="yes"/>
      <point x="1474" y="1063"/>
      <point x="1455" y="1141"/>
      <point x="1399" y="1198" type="curve"/>
      <point x="1485" y="1286" type="line"/>
      <point x="1427" y="1344" type="line"/>
      <point x="1334" y="1249" type="line"/>
      <point x="1207" y="1324"/>
      <point x="1036" y="1344"/>
      <point x="823" y="1344" type="curve"/>
      <point x="824" y="1343" type="line"/>
      <point x="469" y="1343"/>
      <point x="165" y="1298"/>
      <point x="165" y="952" type="curve" smooth="yes"/>
      <point x="165" y="352" type="line" smooth="yes"/>
      <point x="165" y="249"/>
      <point x="182" y="175"/>
      <point x="232" y="118" type="curve"/>
      <point x="135" y="19" type="line"/>
    </contour>
    <contour>
      <point x="736" y="234" type="line"/>
      <point x="736" y="519" type="line"/>
      <point x="902" y="689" type="line"/>
      <point x="902" y="234" type="line"/>
    </contour>
    <contour>
      <point x="736" y="636" type="line"/>
      <point x="736" y="1106" type="line"/>
      <point x="902" y="1106" type="line"/>
      <point x="902" y="806" type="line"/>
    </contour>
    <contour>
      <point x="812" y="1300" type="move" name="top"/>
    </contour>
  </outline>
</glyph>
<glyph name="thorn" format="1">
  <advance width="1593"/>
  <unicode hex="00FE"/>
  <outline>
    <contour>
      <point x="173" y="-409" type="line"/>
      <point x="744" y="-409" type="line"/>
      <point x="744" y="78" type="line"/>
      <point x="752" y="67"/>
      <point x="761" y="56"/>
      <point x="770" y="44" type="curve" smooth="yes"/>
      <point x="815" y="-13"/>
      <point x="907" y="-24"/>
      <point x="1017" y="-24" type="curve" smooth="yes"/>
      <point x="1142" y="-24"/>
      <point x="1239" y="-2"/>
      <point x="1308" y="48" type="curve" smooth="yes"/>
      <point x="1403" y="116"/>
      <point x="1431" y="229"/>
      <point x="1431" y="390" type="curve" smooth="yes"/>
      <point x="1431" y="908" type="line" smooth="yes"/>
      <point x="1431" y="935"/>
      <point x="1430" y="964"/>
      <point x="1429" y="995" type="curve" smooth="yes"/>
      <point x="1419" y="1231"/>
      <point x="1269" y="1323"/>
      <point x="1017" y="1323" type="curve" smooth="yes"/>
      <point x="889" y="1323"/>
      <point x="783" y="1307"/>
      <point x="744" y="1227" type="curve"/>
      <point x="744" y="1602" type="line"/>
      <point x="173" y="1602" type="line"/>
    </contour>
    <contour>
      <point x="746" y="201" type="line"/>
      <point x="746" y="1107" type="line"/>
      <point x="913" y="1107" type="line"/>
      <point x="913" y="201" type="line"/>
    </contour>
  </outline>
</glyph>
<glyph name="Hbar" format="1">
  <advance width="1812"/>
  <unicode hex="0126"/>
  <outline>
    <contour>
      <point x="200" y="0" type="line"/>
      <point x="804" y="0" type="line"/>
      <point x="804" y="688" type="line"/>
      <point x="997" y="688" type="line"/>
      <point x="997" y="0" type="line"/>
      <point x="1602" y="0" type="line"/>
      <point x="1602" y="1158" type="line"/>
      <point x="1708" y="1158" type="line"/>
      <point x="1708" y="1349" type="line"/>
      <point x="1602" y="1349" type="line"/>
      <point x="1602" y="1595" type="line"/>
      <point x="997" y="1595" type="line"/>
      <point x="997" y="1349" type="line"/>
      <point x="804" y="1349" type="line"/>
      <point x="804" y="1595" type="line"/>
      <point x="200" y="1595" type="line"/>
      <point x="200" y="1349" type="line"/>
      <point x="103" y="1349" type="line"/>
      <point x="103" y="1158" type="line"/>
      <point x="200" y="1158" type="line"/>
    </contour>
    <contour>
      <point x="804" y="938" type="line"/>
      <point x="804" y="1158" type="line"/>
      <point x="997" y="1158" type="line"/>
      <point x="997" y="938" type="line"/>
    </contour>
  </outline>
</glyph>
<glyph name="hbar" format="1">
  <advance width="1662"/>
  <unicode hex="0127"/>
  <outline>
    <contour>
      <point x="210" y="0" type="line"/>
      <point x="782" y="0" type="line"/>
      <point x="782" y="1065" type="line"/>
      <point x="948" y="1065" type="line"/>
      <point x="948" y="0" type="line"/>
      <point x="1519" y="0" type="line"/>
      <point x="1519" y="945" type="line" smooth="yes"/>
      <point x="1519" y="1213"/>
      <point x="1378" y="1343"/>
      <point x="1103" y="1343" type="curve" smooth="yes"/>
      <point x="964" y="1343"/>
      <point x="836" y="1297"/>
      <point x="782" y="1210" type="curve"/>
      <point x="782" y="1450" type="line"/>
      <point x="1226" y="1450" type="line"/>
      <point x="1226" y="1619" type="line"/>
      <point x="782" y="1619" type="line"/>
      <point x="782" y="1710" type="line"/>
      <point x="210" y="1710" type="line"/>
      <point x="210" y="1619" type="line"/>
      <point x="81" y="1619" type="line"/>
      <point x="81" y="1450" type="line"/>
      <point x="210" y="1450" type="line"/>
    </contour>
  </outline>
</glyph>
<glyph name="dotlessi" format="1">
  <advance width="992"/>
  <unicode hex="0131"/>
  <outline>
    <contour>
      <point x="216" y="0" type="line"/>
      <point x="785" y="0" type="line"/>
      <point x="785" y="1298" type="line"/>
      <point x="216" y="1298" type="line"/>
    </contour>
    <contour>
      <point x="488" y="1300" type="move" name="top"/>
    </contour>
    <contour>
      <point x="536" y="0" type="move" name="ogonek"/>
    </contour>
  </outline>
</glyph>
<glyph name="kgreenlandic" format="1">
  <advance width="1662"/>
  <unicode hex="0138"/>
  <outline>
    <contour>
      <point x="142" y="0" type="line"/>
      <point x="726" y="0" type="line"/>
      <point x="726" y="318" type="line"/>
      <point x="839" y="455" type="line"/>
      <point x="1028" y="0" type="line"/>
      <point x="1603" y="0" type="line"/>
      <point x="1245" y="790" type="line"/>
      <point x="1580" y="1300" type="line"/>
      <point x="994" y="1300" type="line"/>
      <point x="726" y="858" type="line"/>
      <point x="726" y="1299" type="line"/>
      <point x="142" y="1299" type="line"/>
    </contour>
  </outline>
</glyph>
<glyph name="lslash" format="1">
  <advance width="966"/>
  <unicode hex="0142"/>
  <outline>
    <contour>
      <point x="65" y="630" type="line"/>
      <point x="958" y="962" type="line"/>
      <point x="958" y="1300" type="line"/>
      <point x="65" y="970" type="line"/>
    </contour>
    <component base="l"/>
  </outline>
</glyph>
<glyph name="Eng" format="1">
  <advance width="1758"/>
  <unicode hex="014A"/>
  <outline>
    <contour>
      <point x="791" y="-622" type="line"/>
      <point x="1356" y="-622"/>
      <point x="1571" y="-484"/>
      <point x="1571" y="-64" type="curve" smooth="yes"/>
      <point x="1571" y="1595" type="line"/>
      <point x="1127" y="1595" type="line"/>
      <point x="1127" y="834" type="line"/>
      <point x="696" y="1595" type="line"/>
      <point x="179" y="1595" type="line"/>
      <point x="179" y="0" type="line"/>
      <point x="627" y="0" type="line"/>
      <point x="627" y="711" type="line"/>
      <point x="1061" y="4.2147" type="line"/>
      <point x="1063" y="-272" type="line"/>
      <point x="1018" y="-299"/>
      <point x="928" y="-309"/>
      <point x="791" y="-309" type="curve"/>
    </contour>
  </outline>
</glyph>
<glyph name="eng" format="1">
  <advance width="1639"/>
  <unicode hex="014B"/>
  <outline>
    <contour>
      <point x="634" y="-532" type="line"/>
      <point x="1199" y="-532"/>
      <point x="1474" y="-394"/>
      <point x="1474" y="26" type="curve" smooth="yes"/>
      <point x="1474" y="944" type="line" smooth="yes"/>
      <point x="1474" y="1195"/>
      <point x="1326" y="1326"/>
      <point x="1053" y="1327" type="curve" smooth="yes"/>
      <point x="903" y="1327"/>
      <point x="771" y="1271"/>
      <point x="712" y="1188" type="curve"/>
      <point x="675" y="1300" type="line"/>
      <point x="165" y="1300" type="line"/>
      <point x="165" y="0" type="line"/>
      <point x="736" y="0" type="line"/>
      <point x="736" y="1105" type="line"/>
      <point x="903" y="1105" type="line"/>
      <point x="903" y="-182" type="line"/>
      <point x="858" y="-209"/>
      <point x="771" y="-219"/>
      <point x="634" y="-219" type="curve"/>
    </contour>
  </outline>
</glyph>
<glyph name="OE" format="1">
  <advance width="1869"/>
  <unicode hex="0152"/>
  <outline>
    <contour>
      <point x="755" y="-1" type="curve"/>
      <point x="755" y="0" type="line"/>
      <point x="1801" y="0" type="line"/>
      <point x="1801" y="244" type="line"/>
      <point x="1457" y="244" type="line"/>
      <point x="1457" y="711" type="line"/>
      <point x="1777" y="711" type="line"/>
      <point x="1777" y="961" type="line"/>
      <point x="1457" y="961" type="line"/>
      <point x="1457" y="1354" type="line"/>
      <point x="1801" y="1354" type="line"/>
      <point x="1801" y="1595" type="line"/>
      <point x="755" y="1595" type="line" smooth="yes"/>
      <point x="576" y="1595"/>
      <point x="429" y="1580"/>
      <point x="312" y="1534" type="curve" smooth="yes"/>
      <point x="182" y="1483"/>
      <point x="125" y="1401"/>
      <point x="125" y="1227" type="curve" smooth="yes"/>
      <point x="125" y="371" type="line" smooth="yes"/>
      <point x="125" y="191"/>
      <point x="178" y="114"/>
      <point x="312" y="60" type="curve" smooth="yes"/>
      <point x="429" y="13"/>
      <point x="574" y="-1"/>
    </contour>
    <contour>
      <point x="711" y="232" type="line"/>
      <point x="711" y="1363" type="line"/>
      <point x="825" y="1363" type="line"/>
      <point x="825" y="232" type="line"/>
    </contour>
    <contour>
      <point x="949" y="1595" type="move" name="top"/>
    </contour>
  </outline>
</glyph>
<glyph name="oe" format="1">
  <advance width="2220"/>
  <unicode hex="0153"/>
  <outline>
    <contour>
      <point x="758" y="-30" type="curve" smooth="yes"/>
      <point x="921" y="-30"/>
      <point x="1058" y="2"/>
      <point x="1121" y="94" type="curve"/>
      <point x="1122" y="96" type="line"/>
      <point x="1168" y="-9"/>
      <point x="1334" y="-28"/>
      <point x="1495" y="-28" type="curve" smooth="yes"/>
      <point x="1675" y="-28"/>
      <point x="1822" y="-11"/>
      <point x="1936" y="39" type="curve" smooth="yes"/>
      <point x="2066" y="96"/>
      <point x="2116" y="188"/>
      <point x="2116" y="368" type="curve" smooth="yes"/>
      <point x="2116" y="554" type="line"/>
      <point x="1549" y="554" type="line"/>
      <point x="1549" y="249" type="line"/>
      <point x="1398" y="249" type="line"/>
      <point x="1398" y="620" type="line"/>
      <point x="2112" y="620" type="line"/>
      <point x="2116" y="931" type="line" smooth="yes"/>
      <point x="2116" y="958"/>
      <point x="2115" y="986"/>
      <point x="2114" y="1016" type="curve" smooth="yes"/>
      <point x="2108" y="1145"/>
      <point x="2036" y="1217"/>
      <point x="1935" y="1262" type="curve" smooth="yes"/>
      <point x="1821" y="1313"/>
      <point x="1676" y="1330"/>
      <point x="1494" y="1330" type="curve" smooth="yes"/>
      <point x="1333" y="1330"/>
      <point x="1181" y="1304"/>
      <point x="1121" y="1211" type="curve"/>
      <point x="1071" y="1305"/>
      <point x="910" y="1330"/>
      <point x="757" y="1330" type="curve" smooth="yes"/>
      <point x="577" y="1330"/>
      <point x="429" y="1313"/>
      <point x="315" y="1262" type="curve" smooth="yes"/>
      <point x="185" y="1203"/>
      <point x="132" y="1112"/>
      <point x="132" y="930" type="curve" smooth="yes"/>
      <point x="132" y="367" type="line" smooth="yes"/>
      <point x="132" y="340"/>
      <point x="133" y="312"/>
      <point x="135" y="282" type="curve" smooth="yes"/>
      <point x="150" y="10"/>
      <point x="457" y="-30"/>
    </contour>
    <contour>
      <point x="696" y="248" type="line"/>
      <point x="696" y="1051" type="line"/>
      <point x="846" y="1051" type="line"/>
      <point x="846" y="248" type="line"/>
    </contour>
    <contour>
      <point x="1397" y="825" type="line"/>
      <point x="1397" y="1051" type="line"/>
      <point x="1548" y="1051" type="line"/>
      <point x="1548" y="825" type="line"/>
    </contour>
    <contour>
      <point x="1115" y="1300" type="move" name="top"/>
    </contour>
  </outline>
</glyph>
<glyph name="dotlessj" format="1">
  <advance width="1223"/>
  <unicode hex="0237"/>
  <outline>
    <contour>
      <point x="479" y="-326" type="curve" smooth="yes"/>
      <point x="776" y="-326"/>
      <point x="940" y="-199"/>
      <point x="940" y="94" type="curve" smooth="yes"/>
      <point x="940" y="1300" type="line"/>
      <point x="368" y="1300" type="line"/>
      <point x="368" y="-66" type="line"/>
      <point x="179" y="-66" type="line"/>
      <point x="209" y="-305" type="line"/>
      <point x="290" y="-321"/>
      <point x="370" y="-326"/>
    </contour>
    <contour>
      <point x="649" y="1300" type="move" name="top"/>
    </contour>
  </outline>
</glyph>
<glyph name="apostrophemod" format="1">
  <advance width="1012"/>
  <unicode hex="02BC"/>
  <outline>
    <contour>
      <point x="431" y="1530" type="curve" smooth="yes"/>
      <point x="652" y="1530"/>
      <point x="778" y="1749"/>
      <point x="778" y="1933" type="curve" smooth="yes"/>
      <point x="778" y="2062"/>
      <point x="712" y="2173"/>
      <point x="568" y="2173" type="curve" smooth="yes"/>
      <point x="466" y="2173"/>
      <point x="364" y="2106"/>
      <point x="364" y="1973" type="curve" smooth="yes"/>
      <point x="364" y="1844"/>
      <point x="450" y="1774"/>
      <point x="543" y="1764" type="curve"/>
      <point x="537" y="1687"/>
      <point x="467" y="1643"/>
      <point x="387" y="1642" type="curve"/>
      <point x="387" y="1533" type="line"/>
      <point x="402" y="1531"/>
      <point x="417" y="1530"/>
    </contour>
    <contour>
      <point x="683" y="1300" type="move" name="_bot"/>
    </contour>
  </outline>
</glyph>
<glyph name="circumflex" format="1">
  <advance width="1318"/>
  <unicode hex="02C6"/>
  <outline>
    <contour>
      <point x="484" y="1433" type="curve" smooth="yes"/>
      <point x="787" y="1668" type="line"/>
      <point x="1090" y="1433" type="line" smooth="yes"/>
      <point x="1127.47222222" y="1403.41666667"/>
      <point x="1168.55" y="1406.05714286"/>
      <point x="1191.625" y="1428.625" type="curve" smooth="yes"/>
      <point x="1212.83783784" y="1449.37162162"/>
      <point x="1217.875" y="1486.03125"/>
      <point x="1192" y="1527" type="curve" smooth="yes"/>
      <point x="929" y="1936" type="line" smooth="yes"/>
      <point x="896" y="1987"/>
      <point x="841" y="2008"/>
      <point x="788" y="2008" type="curve" smooth="yes"/>
      <point x="733" y="2008"/>
      <point x="676" y="1984"/>
      <point x="645" y="1936" type="curve" smooth="yes"/>
      <point x="382" y="1527" type="line" smooth="yes"/>
      <point x="355.2" y="1484.56666667"/>
      <point x="361.77027027" y="1449.81756757"/>
      <point x="383.5" y="1430.125" type="curve" smooth="yes"/>
      <point x="406.833333333" y="1408.97916667"/>
      <point x="446.941176471" y="1404.17647059"/>
    </contour>
    <contour>
      <point x="787" y="1300" type="move" name="_top"/>
    </contour>
  </outline>
</glyph>
<glyph name="caron" format="1">
  <advance width="1318"/>
  <unicode hex="02C7"/>
  <outline>
    <contour>
      <point x="788" y="1451" type="curve" smooth="yes"/>
      <point x="841" y="1451"/>
      <point x="896" y="1472"/>
      <point x="929" y="1523" type="curve" smooth="yes"/>
      <point x="1192" y="1932" type="line" smooth="yes"/>
      <point x="1204" y="1951"/>
      <point x="1210" y="1969"/>
      <point x="1210" y="1985" type="curve" smooth="yes"/>
      <point x="1210" y="2022"/>
      <point x="1182" y="2048"/>
      <point x="1147" y="2048" type="curve" smooth="yes"/>
      <point x="1129" y="2048"/>
      <point x="1109" y="2041"/>
      <point x="1090" y="2026" type="curve" smooth="yes"/>
      <point x="787" y="1791" type="line"/>
      <point x="484" y="2026" type="line" smooth="yes"/>
      <point x="466" y="2040"/>
      <point x="447" y="2046"/>
      <point x="430" y="2046" type="curve" smooth="yes"/>
      <point x="394" y="2046"/>
      <point x="364" y="2021"/>
      <point x="364" y="1984" type="curve" smooth="yes"/>
      <point x="364" y="1969"/>
      <point x="370" y="1951"/>
      <point x="382" y="1932" type="curve" smooth="yes"/>
      <point x="645" y="1523" type="line" smooth="yes"/>
      <point x="676" y="1475"/>
      <point x="733" y="1451"/>
    </contour>
    <contour>
      <point x="787" y="1300" type="move" name="_top"/>
    </contour>
  </outline>
</glyph>
<glyph name="uni02C9" format="1">
  <advance width="1310"/>
  <unicode hex="02C9"/>
  <outline>
    <contour>
      <point x="364" y="1507" type="line"/>
      <point x="1197" y="1507" type="line"/>
      <point x="1197" y="1738" type="line"/>
      <point x="364" y="1738" type="line"/>
    </contour>
    <contour>
      <point x="777" y="1300" type="move" name="_top"/>
    </contour>
  </outline>
</glyph>
<glyph name="dotaccent" format="1">
  <advance width="1127"/>
  <unicode hex="02D9"/>
  <outline>
    <contour>
      <point x="364" y="1487" type="line"/>
      <point x="935" y="1487" type="line"/>
      <point x="935" y="1771" type="line"/>
      <point x="364" y="1771" type="line"/>
    </contour>
    <contour>
      <point x="648" y="1300" type="move" name="_top"/>
    </contour>
  </outline>
</glyph>
<glyph name="ogonek" format="1">
  <advance width="1073"/>
  <unicode hex="02DB"/>
  <outline>
    <contour>
      <point x="724" y="-586" type="curve" smooth="yes"/>
      <point x="768" y="-586"/>
      <point x="814" y="-581"/>
      <point x="861" y="-571" type="curve"/>
      <point x="861" y="-346" type="line"/>
      <point x="837" y="-353"/>
      <point x="810" y="-357"/>
      <point x="784" y="-357" type="curve" smooth="yes"/>
      <point x="700" y="-357"/>
      <point x="621" y="-317"/>
      <point x="621" y="-219" type="curve" smooth="yes"/>
      <point x="621" y="-157"/>
      <point x="660" y="-85"/>
      <point x="751" y="0" type="curve"/>
      <point x="590" y="0" type="line"/>
      <point x="411" y="-130"/>
      <point x="364" y="-249"/>
      <point x="364" y="-330" type="curve" smooth="yes"/>
      <point x="364" y="-479"/>
      <point x="518" y="-586"/>
    </contour>
    <contour>
      <point x="661" y="0" type="move" name="_ogonek"/>
    </contour>
  </outline>
</glyph>
<glyph name="tilde" format="1">
  <advance width="1463"/>
  <unicode hex="02DC"/>
  <outline>
    <contour>
      <point x="698" y="1489" type="curve" smooth="yes"/>
      <point x="842" y="1489"/>
      <point x="923" y="1544"/>
      <point x="1000" y="1605" type="curve" smooth="yes"/>
      <point x="1023" y="1623"/>
      <point x="1049" y="1645"/>
      <point x="1085" y="1645" type="curve" smooth="yes"/>
      <point x="1152" y="1645"/>
      <point x="1175" y="1578"/>
      <point x="1175" y="1511" type="curve"/>
      <point x="1416" y="1511" type="line"/>
      <point x="1416" y="1797"/>
      <point x="1378" y="1963"/>
      <point x="1082" y="1963" type="curve" smooth="yes"/>
      <point x="943" y="1963"/>
      <point x="867" y="1903"/>
      <point x="788" y="1845" type="curve" smooth="yes"/>
      <point x="763" y="1827"/>
      <point x="735" y="1804"/>
      <point x="699" y="1804" type="curve" smooth="yes"/>
      <point x="629" y="1804"/>
      <point x="607" y="1871"/>
      <point x="607" y="1942" type="curve"/>
      <point x="364" y="1942" type="line"/>
      <point x="364" y="1860"/>
      <point x="371" y="1793"/>
      <point x="386" y="1741" type="curve"/>
      <point x="423" y="1576"/>
      <point x="505" y="1489"/>
    </contour>
    <contour>
      <point x="895" y="1300" type="move" name="_top"/>
    </contour>
  </outline>
</glyph>
<glyph name="hungarumlaut" format="1">
  <advance width="1777"/>
  <unicode hex="02DD"/>
  <outline>
    <contour>
      <point x="427" y="1431" type="curve" smooth="yes"/>
      <point x="437" y="1431"/>
      <point x="448" y="1432"/>
      <point x="459" y="1436" type="curve" smooth="yes"/>
      <point x="664" y="1498"/>
      <point x="951" y="1570"/>
      <point x="1055" y="1630" type="curve" smooth="yes"/>
      <point x="1136" y="1677"/>
      <point x="1171" y="1747"/>
      <point x="1171" y="1812" type="curve" smooth="yes"/>
      <point x="1171" y="1906"/>
      <point x="1100" y="1990"/>
      <point x="997" y="1990" type="curve" smooth="yes"/>
      <point x="959" y="1990"/>
      <point x="917" y="1979"/>
      <point x="872" y="1953" type="curve" smooth="yes"/>
      <point x="771" y="1895"/>
      <point x="561" y="1689"/>
      <point x="398" y="1540" type="curve" smooth="yes"/>
      <point x="374" y="1519"/>
      <point x="364" y="1498"/>
      <point x="364" y="1480" type="curve" smooth="yes"/>
      <point x="364" y="1451"/>
      <point x="392" y="1431"/>
    </contour>
    <contour>
      <point x="1118" y="1431" type="curve" smooth="yes"/>
      <point x="1128" y="1431"/>
      <point x="1139" y="1432"/>
      <point x="1150" y="1436" type="curve" smooth="yes"/>
      <point x="1355" y="1498"/>
      <point x="1642" y="1570"/>
      <point x="1746" y="1630" type="curve" smooth="yes"/>
      <point x="1827" y="1677"/>
      <point x="1862" y="1747"/>
      <point x="1862" y="1812" type="curve" smooth="yes"/>
      <point x="1862" y="1906"/>
      <point x="1791" y="1990"/>
      <point x="1688" y="1990" type="curve" smooth="yes"/>
      <point x="1650" y="1990"/>
      <point x="1608" y="1979"/>
      <point x="1563" y="1953" type="curve" smooth="yes"/>
      <point x="1462" y="1895"/>
      <point x="1252" y="1689"/>
      <point x="1089" y="1540" type="curve" smooth="yes"/>
      <point x="1065" y="1519"/>
      <point x="1055" y="1498"/>
      <point x="1055" y="1480" type="curve" smooth="yes"/>
      <point x="1055" y="1451"/>
      <point x="1083" y="1431"/>
    </contour>
    <contour>
      <point x="896" y="1300" type="move" name="_top"/>
    </contour>
  </outline>
</glyph>
<glyph name="dblgravecmb" format="1">
  <advance width="1777"/>
  <unicode hex="030F"/>
  <outline>
    <contour>
      <point x="1108" y="1371" type="curve" smooth="yes"/>
      <point x="1143" y="1371"/>
      <point x="1171" y="1391"/>
      <point x="1171" y="1420" type="curve" smooth="yes"/>
      <point x="1171" y="1438"/>
      <point x="1161" y="1459"/>
      <point x="1137" y="1480" type="curve" smooth="yes"/>
      <point x="974" y="1629"/>
      <point x="764" y="1835"/>
      <point x="663" y="1893" type="curve" smooth="yes"/>
      <point x="618" y="1919"/>
      <point x="576" y="1930"/>
      <point x="538" y="1930" type="curve" smooth="yes"/>
      <point x="435" y="1930"/>
      <point x="364" y="1846"/>
      <point x="364" y="1752" type="curve" smooth="yes"/>
      <point x="364" y="1687"/>
      <point x="399" y="1617"/>
      <point x="480" y="1570" type="curve" smooth="yes"/>
      <point x="584" y="1510"/>
      <point x="871" y="1438"/>
      <point x="1076" y="1376" type="curve" smooth="yes"/>
      <point x="1087" y="1372"/>
      <point x="1098" y="1371"/>
    </contour>
    <contour>
      <point x="1799" y="1371" type="curve" smooth="yes"/>
      <point x="1834" y="1371"/>
      <point x="1862" y="1391"/>
      <point x="1862" y="1420" type="curve" smooth="yes"/>
      <point x="1862" y="1438"/>
      <point x="1852" y="1459"/>
      <point x="1828" y="1480" type="curve" smooth="yes"/>
      <point x="1665" y="1629"/>
      <point x="1455" y="1835"/>
      <point x="1354" y="1893" type="curve" smooth="yes"/>
      <point x="1309" y="1919"/>
      <point x="1267" y="1930"/>
      <point x="1229" y="1930" type="curve" smooth="yes"/>
      <point x="1126" y="1930"/>
      <point x="1055" y="1846"/>
      <point x="1055" y="1752" type="curve" smooth="yes"/>
      <point x="1055" y="1687"/>
      <point x="1090" y="1617"/>
      <point x="1171" y="1570" type="curve" smooth="yes"/>
      <point x="1275" y="1510"/>
      <point x="1562" y="1438"/>
      <point x="1767" y="1376" type="curve" smooth="yes"/>
      <point x="1778" y="1372"/>
      <point x="1789" y="1371"/>
    </contour>
    <contour>
      <point x="1316" y="1300" type="move" name="_top"/>
    </contour>
  </outline>
</glyph>
<glyph name="commaturnedabovecomb" format="1">
  <advance width="1012"/>
  <unicode hex="0312"/>
  <outline>
    <contour>
      <point x="574" y="1435" type="curve" smooth="yes"/>
      <point x="676" y="1435"/>
      <point x="778" y="1502"/>
      <point x="778" y="1635" type="curve" smooth="yes"/>
      <point x="778" y="1764"/>
      <point x="692" y="1834"/>
      <point x="599" y="1844" type="curve"/>
      <point x="605" y="1921"/>
      <point x="675" y="1965"/>
      <point x="755" y="1966" type="curve"/>
      <point x="755" y="2075" type="line"/>
      <point x="655.0" y="2088.33333333"/>
      <point x="364.0" y="1891.47058824"/>
      <point x="364" y="1675" type="curve" smooth="yes"/>
      <point x="364" y="1546"/>
      <point x="430" y="1435"/>
    </contour>
    <contour>
      <point x="571" y="1300" type="move" name="_top"/>
    </contour>
  </outline>
</glyph>
<glyph name="commaaccent" format="1">
  <advance width="1012"/>
  <unicode hex="0326"/>
  <outline>
    <contour>
      <point x="387" y="-735" type="line"/>
      <point x="487.0" y="-748.333333333"/>
      <point x="778.0" y="-572.470588235"/>
      <point x="778" y="-356" type="curve" smooth="yes"/>
      <point x="778" y="-227"/>
      <point x="712" y="-130"/>
      <point x="568" y="-130" type="curve" smooth="yes"/>
      <point x="466" y="-130"/>
      <point x="364" y="-183"/>
      <point x="364" y="-316" type="curve" smooth="yes"/>
      <point x="364" y="-445"/>
      <point x="450" y="-494"/>
      <point x="543" y="-504" type="curve"/>
      <point x="537" y="-581"/>
      <point x="467" y="-625"/>
      <point x="387" y="-626" type="curve"/>
    </contour>
    <contour>
      <point x="571" y="0" type="move" name="_bottom"/>
    </contour>
    <contour>
      <point x="571" y="0" type="move" name="_bot"/>
    </contour>
  </outline>
</glyph>
<glyph name="Delta" format="1">
  <advance width="1544"/>
  <unicode hex="0394"/>
  <outline>
    <contour>
      <point x="156" y="0" type="line"/>
      <point x="1411" y="0" type="line"/>
      <point x="854" y="1490" type="line"/>
      <point x="683" y="1490" type="line"/>
    </contour>
    <contour>
      <point x="319" y="144" type="line"/>
      <point x="715" y="1287" type="line"/>
      <point x="1113" y="144" type="line"/>
    </contour>
  </outline>
</glyph>
<glyph name="Sigma" format="1">
  <advance width="1430"/>
  <unicode hex="03A3"/>
  <outline>
    <contour>
      <point x="202" y="0" type="line"/>
      <point x="1189" y="0" type="line"/>
      <point x="1189" y="201" type="line"/>
      <point x="439" y="201" type="line"/>
      <point x="916" y="726" type="line"/>
      <point x="916" y="827" type="line"/>
      <point x="452" y="1292" type="line"/>
      <point x="1141" y="1292" type="line"/>
      <point x="1141" y="1490" type="line"/>
      <point x="202" y="1490" type="line"/>
      <point x="202" y="1293" type="line"/>
      <point x="690" y="775" type="line"/>
      <point x="202" y="220" type="line"/>
    </contour>
  </outline>
</glyph>
<glyph name="Omega" format="1">
  <advance width="1904"/>
  <unicode hex="03A9"/>
  <outline>
    <contour>
      <point x="171" y="0" type="line"/>
      <point x="863" y="0" type="line"/>
      <point x="863" y="130" type="line"/>
      <point x="575" y="243"/>
      <point x="420" y="513"/>
      <point x="420" y="780" type="curve" smooth="yes"/>
      <point x="420" y="1136"/>
      <point x="686" y="1307"/>
      <point x="947" y="1307" type="curve" smooth="yes"/>
      <point x="1209" y="1307"/>
      <point x="1474" y="1136"/>
      <point x="1474" y="780" type="curve" smooth="yes"/>
      <point x="1474" y="513"/>
      <point x="1319" y="243"/>
      <point x="1031" y="130" type="curve"/>
      <point x="1031" y="0" type="line"/>
      <point x="1723" y="0" type="line"/>
      <point x="1723" y="139" type="line"/>
      <point x="1307" y="139" type="line"/>
      <point x="1572" y="297"/>
      <point x="1697" y="545"/>
      <point x="1697" y="780" type="curve" smooth="yes"/>
      <point x="1697" y="1256"/>
      <point x="1324" y="1491"/>
      <point x="947" y="1491" type="curve" smooth="yes"/>
      <point x="570" y="1491"/>
      <point x="197" y="1256"/>
      <point x="197" y="780" type="curve" smooth="yes"/>
      <point x="197" y="545"/>
      <point x="322" y="297"/>
      <point x="587" y="139" type="curve"/>
      <point x="171" y="139" type="line"/>
    </contour>
  </outline>
</glyph>
<glyph name="pi" format="1">
  <advance width="1433"/>
  <unicode hex="03C0"/>
  <outline>
    <contour>
      <point x="1120" y="-25" type="curve" smooth="yes"/>
      <point x="1188" y="-25"/>
      <point x="1265" y="-1"/>
      <point x="1340" y="48" type="curve"/>
      <point x="1340" y="152" type="line"/>
      <point x="1295" y="139"/>
      <point x="1255" y="132"/>
      <point x="1219" y="132" type="curve" smooth="yes"/>
      <point x="1097" y="132"/>
      <point x="1028" y="212"/>
      <point x="1028" y="416" type="curve" smooth="yes"/>
      <point x="1028" y="535"/>
      <point x="1054" y="699"/>
      <point x="1098" y="912" type="curve"/>
      <point x="1335" y="912" type="line"/>
      <point x="1335" y="1097" type="line"/>
      <point x="471" y="1097" type="line" smooth="yes"/>
      <point x="223" y="1097"/>
      <point x="119" y="1001"/>
      <point x="119" y="775" type="curve"/>
      <point x="246" y="775" type="line"/>
      <point x="259" y="854"/>
      <point x="300" y="912"/>
      <point x="383" y="912" type="curve" smooth="yes"/>
      <point x="513" y="912" type="line"/>
      <point x="417" y="389" type="line" smooth="yes"/>
      <point x="376" y="166"/>
      <point x="250" y="112"/>
      <point x="159" y="112" type="curve"/>
      <point x="159" y="0" type="line"/>
      <point x="520" y="0"/>
      <point x="566" y="93"/>
      <point x="588" y="322" type="curve" smooth="yes"/>
      <point x="645" y="912" type="line"/>
      <point x="991" y="912" type="line"/>
      <point x="926" y="697"/>
      <point x="866" y="472"/>
      <point x="866" y="298" type="curve" smooth="yes"/>
      <point x="866" y="82"/>
      <point x="976" y="-25"/>
    </contour>
  </outline>
</glyph>
<glyph name="endash" format="1">
  <advance width="1310"/>
  <unicode hex="2013"/>
  <outline>
    <contour>
      <point x="234" y="461" type="line"/>
      <point x="1067" y="461" type="line"/>
      <point x="1067" y="897" type="line"/>
      <point x="234" y="897" type="line"/>
    </contour>
  </outline>
</glyph>
<glyph name="emdash" format="1">
  <advance width="1907"/>
  <unicode hex="2014"/>
  <outline>
    <contour>
      <point x="104" y="461" type="line"/>
      <point x="1789" y="461" type="line"/>
      <point x="1789" y="897" type="line"/>
      <point x="104" y="897" type="line"/>
    </contour>
  </outline>
</glyph>
<glyph name="quoteleft" format="1">
  <advance width="997"/>
  <unicode hex="2018"/>
  <outline>
    <contour>
      <point x="508" y="987" type="curve" smooth="yes"/>
      <point x="605" y="987"/>
      <point x="702" y="1054"/>
      <point x="702" y="1187" type="curve" smooth="yes"/>
      <point x="702" y="1316"/>
      <point x="616" y="1386"/>
      <point x="523" y="1396" type="curve"/>
      <point x="529" y="1473"/>
      <point x="599" y="1517"/>
      <point x="679" y="1518" type="curve"/>
      <point x="679" y="1627" type="line"/>
      <point x="579.0" y="1640.33333333"/>
      <point x="288.0" y="1443.47058824"/>
      <point x="288" y="1227" type="curve" smooth="yes"/>
      <point x="288" y="1098"/>
      <point x="357" y="987"/>
    </contour>
  </outline>
</glyph>
<glyph name="quotedblbase" format="1">
  <advance width="1317"/>
  <unicode hex="201E"/>
  <outline>
    <contour>
      <point x="462" y="-350" type="curve" smooth="yes"/>
      <point x="507" y="-160"/>
      <point x="600" y="98"/>
      <point x="600" y="206" type="curve" smooth="yes"/>
      <point x="600" y="322"/>
      <point x="502" y="383"/>
      <point x="405" y="383" type="curve" smooth="yes"/>
      <point x="311" y="383"/>
      <point x="219" y="326"/>
      <point x="219" y="208" type="curve" smooth="yes"/>
      <point x="219" y="103"/>
      <point x="307" y="-156"/>
      <point x="352" y="-350" type="curve"/>
      <point x="363" y="-390"/>
      <point x="385" y="-409"/>
      <point x="407" y="-409" type="curve" smooth="yes"/>
      <point x="429" y="-409"/>
      <point x="453" y="-389"/>
    </contour>
    <contour>
      <point x="959" y="-350" type="curve" smooth="yes"/>
      <point x="1004" y="-160"/>
      <point x="1097" y="98"/>
      <point x="1097" y="206" type="curve" smooth="yes"/>
      <point x="1097" y="322"/>
      <point x="999" y="383"/>
      <point x="902" y="383" type="curve" smooth="yes"/>
      <point x="808" y="383"/>
      <point x="716" y="326"/>
      <point x="716" y="208" type="curve" smooth="yes"/>
      <point x="716" y="103"/>
      <point x="804" y="-156"/>
      <point x="849" y="-350" type="curve"/>
      <point x="860" y="-390"/>
      <point x="882" y="-409"/>
      <point x="904" y="-409" type="curve" smooth="yes"/>
      <point x="926" y="-409"/>
      <point x="950" y="-389"/>
    </contour>
  </outline>
</glyph>
<glyph name="dagger" format="1">
  <advance width="1475"/>
  <unicode hex="2020"/>
  <outline>
    <contour>
      <point x="729" y="5" type="curve" smooth="yes"/>
      <point x="823" y="5"/>
      <point x="918" y="79"/>
      <point x="918" y="222" type="curve" smooth="yes"/>
      <point x="918" y="368"/>
      <point x="865" y="649"/>
      <point x="798" y="1007" type="curve"/>
      <point x="901" y="968"/>
      <point x="1023" y="915"/>
      <point x="1113" y="915" type="curve" smooth="yes"/>
      <point x="1192" y="915"/>
      <point x="1231" y="986"/>
      <point x="1231" y="1058" type="curve" smooth="yes"/>
      <point x="1231" y="1128"/>
      <point x="1192" y="1199"/>
      <point x="1114" y="1199" type="curve" smooth="yes"/>
      <point x="1021" y="1199"/>
      <point x="896" y="1143"/>
      <point x="790" y="1103" type="curve"/>
      <point x="852" y="1225"/>
      <point x="919" y="1357"/>
      <point x="919" y="1458" type="curve" smooth="yes"/>
      <point x="919" y="1569"/>
      <point x="823" y="1627"/>
      <point x="729" y="1627" type="curve" smooth="yes"/>
      <point x="636" y="1627"/>
      <point x="544" y="1571"/>
      <point x="544" y="1457" type="curve" smooth="yes"/>
      <point x="544" y="1358"/>
      <point x="605" y="1230"/>
      <point x="666" y="1110" type="curve"/>
      <point x="548" y="1156"/>
      <point x="440" y="1199"/>
      <point x="358" y="1199" type="curve" smooth="yes"/>
      <point x="280" y="1199"/>
      <point x="240" y="1127"/>
      <point x="240" y="1056" type="curve" smooth="yes"/>
      <point x="240" y="985"/>
      <point x="279" y="915"/>
      <point x="359" y="915" type="curve" smooth="yes"/>
      <point x="439" y="915"/>
      <point x="545" y="957"/>
      <point x="661" y="1002" type="curve"/>
      <point x="600" y="666"/>
      <point x="547" y="369"/>
      <point x="547" y="220" type="curve" smooth="yes"/>
      <point x="547" y="76"/>
      <point x="638" y="5"/>
    </contour>
  </outline>
</glyph>
<glyph name="ellipsis" format="1">
  <advance width="2067"/>
  <unicode hex="2026"/>
  <outline>
    <contour>
      <point x="362" y="-39" type="curve" smooth="yes"/>
      <point x="464" y="-39"/>
      <point x="566" y="31"/>
      <point x="566" y="171" type="curve" smooth="yes"/>
      <point x="566" y="311"/>
      <point x="464" y="381"/>
      <point x="362" y="381" type="curve" smooth="yes"/>
      <point x="260" y="381"/>
      <point x="158" y="311"/>
      <point x="158" y="171" type="curve" smooth="yes"/>
      <point x="158" y="31"/>
      <point x="260" y="-39"/>
    </contour>
    <contour>
      <point x="1032" y="-39" type="curve" smooth="yes"/>
      <point x="1134" y="-39"/>
      <point x="1236" y="31"/>
      <point x="1236" y="171" type="curve" smooth="yes"/>
      <point x="1236" y="311"/>
      <point x="1134" y="381"/>
      <point x="1032" y="381" type="curve" smooth="yes"/>
      <point x="930" y="381"/>
      <point x="828" y="311"/>
      <point x="828" y="171" type="curve" smooth="yes"/>
      <point x="828" y="31"/>
      <point x="930" y="-39"/>
    </contour>
    <contour>
      <point x="1702" y="-39" type="curve" smooth="yes"/>
      <point x="1804" y="-39"/>
      <point x="1906" y="31"/>
      <point x="1906" y="171" type="curve" smooth="yes"/>
      <point x="1906" y="311"/>
      <point x="1804" y="381"/>
      <point x="1702" y="381" type="curve" smooth="yes"/>
      <point x="1600" y="381"/>
      <point x="1498" y="311"/>
      <point x="1498" y="171" type="curve" smooth="yes"/>
      <point x="1498" y="31"/>
      <point x="1600" y="-39"/>
    </contour>
  </outline>
</glyph>
<glyph name="perthousand" format="1">
  <advance width="2967"/>
  <unicode hex="2030"/>
  <outline>
    <contour>
      <point x="2624" y="129" type="curve" smooth="yes"/>
      <point x="2399" y="129"/>
      <point x="2174" y="146"/>
      <point x="2174" y="441" type="curve" smooth="yes"/>
      <point x="2174" y="798" type="line" smooth="yes"/>
      <point x="2174" y="1091"/>
      <point x="2399" y="1109"/>
      <point x="2623" y="1109" type="curve" smooth="yes"/>
      <point x="2846" y="1109"/>
      <point x="3074" y="1092"/>
      <point x="3074" y="799" type="curve" smooth="yes"/>
      <point x="3074" y="442" type="line" smooth="yes"/>
      <point x="3074" y="153"/>
      <point x="2845" y="129"/>
    </contour>
    <contour>
      <point x="2671" y="347" type="line"/>
      <point x="2671" y="892" type="line"/>
      <point x="2581" y="892" type="line"/>
      <point x="2581" y="347" type="line"/>
    </contour>
    <component base="percent" xOffset="-549.824"/>
  </outline>
</glyph>
<glyph name="guilsinglleft" format="1">
  <advance width="1203"/>
  <unicode hex="2039"/>
  <outline>
    <contour>
      <point x="899" y="190" type="curve" smooth="yes"/>
      <point x="945" y="190"/>
      <point x="979" y="230"/>
      <point x="979" y="277" type="curve" smooth="yes"/>
      <point x="979" y="300"/>
      <point x="974" y="323"/>
      <point x="957" y="345" type="curve" smooth="yes"/>
      <point x="623" y="777" type="line"/>
      <point x="957" y="1209" type="line" smooth="yes"/>
      <point x="975" y="1233"/>
      <point x="981" y="1256"/>
      <point x="981" y="1278" type="curve" smooth="yes"/>
      <point x="981" y="1326"/>
      <point x="947" y="1364"/>
      <point x="901" y="1364" type="curve" smooth="yes"/>
      <point x="883" y="1364"/>
      <point x="859" y="1358"/>
      <point x="835" y="1341" type="curve" smooth="yes"/>
      <point x="309" y="961" type="line" smooth="yes"/>
      <point x="251" y="919"/>
      <point x="220" y="846"/>
      <point x="219" y="775" type="curve" smooth="yes"/>
      <point x="219" y="706"/>
      <point x="249" y="636"/>
      <point x="309" y="593" type="curve" smooth="yes"/>
      <point x="835" y="213" type="line" smooth="yes"/>
      <point x="858" y="196"/>
      <point x="880" y="190"/>
    </contour>
  </outline>
</glyph>
<glyph name="guilsinglright" format="1">
  <advance width="1195"/>
  <unicode hex="203A"/>
  <outline>
    <contour>
      <point x="293" y="190" type="curve" smooth="yes"/>
      <point x="312" y="190"/>
      <point x="334" y="196"/>
      <point x="357" y="213" type="curve" smooth="yes"/>
      <point x="883" y="593" type="line" smooth="yes"/>
      <point x="943" y="636"/>
      <point x="973" y="706"/>
      <point x="973" y="775" type="curve" smooth="yes"/>
      <point x="972" y="846"/>
      <point x="941" y="919"/>
      <point x="883" y="961" type="curve" smooth="yes"/>
      <point x="357" y="1341" type="line" smooth="yes"/>
      <point x="333" y="1358"/>
      <point x="309" y="1364"/>
      <point x="291" y="1364" type="curve" smooth="yes"/>
      <point x="245" y="1364"/>
      <point x="211" y="1326"/>
      <point x="211" y="1278" type="curve" smooth="yes"/>
      <point x="211" y="1256"/>
      <point x="217" y="1233"/>
      <point x="235" y="1209" type="curve" smooth="yes"/>
      <point x="569" y="777" type="line"/>
      <point x="235" y="345" type="line" smooth="yes"/>
      <point x="218" y="323"/>
      <point x="213" y="300"/>
      <point x="213" y="277" type="curve" smooth="yes"/>
      <point x="213" y="230"/>
      <point x="247" y="190"/>
    </contour>
  </outline>
</glyph>
<glyph name="fraction" format="1">
  <advance width="1236"/>
  <unicode hex="2044"/>
  <outline>
    <contour>
      <point x="225" y="0" type="line"/>
      <point x="580" y="0" type="line"/>
      <point x="1011" y="1595" type="line"/>
      <point x="577" y="1595" type="line"/>
    </contour>
  </outline>
</glyph>
<glyph name="uni2074" format="1">
  <advance width="1310"/>
  <unicode hex="2074"/>
  <outline>
    <contour>
      <point x="712" y="130" type="line"/>
      <point x="1071" y="130" type="line"/>
      <point x="1071" y="760" type="line"/>
      <point x="712" y="760" type="line"/>
      <point x="712" y="535" type="line"/>
      <point x="582" y="535" type="line"/>
      <point x="582" y="571" type="line"/>
      <point x="751" y="1172" type="line"/>
      <point x="366" y="1172" type="line"/>
      <point x="196" y="571" type="line"/>
      <point x="196" y="291" type="line"/>
      <point x="712" y="291" type="line"/>
    </contour>
  </outline>
</glyph>
<glyph name="Euro" format="1">
  <advance width="1751"/>
  <unicode hex="20AC"/>
  <outline>
    <contour>
      <point x="911" y="-40" type="curve" smooth="yes"/>
      <point x="1215" y="-40"/>
      <point x="1597" y="-6"/>
      <point x="1597" y="369" type="curve" smooth="yes"/>
      <point x="1597" y="451" type="line"/>
      <point x="993" y="451" type="line"/>
      <point x="993" y="233" type="line"/>
      <point x="820" y="233" type="line"/>
      <point x="820" y="561" type="line"/>
      <point x="1162" y="561" type="line"/>
      <point x="1162" y="706" type="line"/>
      <point x="820" y="706" type="line"/>
      <point x="820" y="843" type="line"/>
      <point x="1162" y="843" type="line"/>
      <point x="1162" y="988" type="line"/>
      <point x="820" y="988" type="line"/>
      <point x="820" y="1356" type="line"/>
      <point x="993" y="1356" type="line"/>
      <point x="993" y="1139" type="line"/>
      <point x="1597" y="1139" type="line"/>
      <point x="1597" y="1227" type="line" smooth="yes"/>
      <point x="1597" y="1606"/>
      <point x="1223" y="1632"/>
      <point x="908" y="1632" type="curve" smooth="yes"/>
      <point x="608" y="1632"/>
      <point x="215" y="1598"/>
      <point x="215" y="1226" type="curve" smooth="yes"/>
      <point x="215" y="987" type="line"/>
      <point x="125" y="987" type="line"/>
      <point x="125" y="843" type="line"/>
      <point x="215" y="843" type="line"/>
      <point x="215" y="705" type="line"/>
      <point x="125" y="705" type="line"/>
      <point x="125" y="561" type="line"/>
      <point x="215" y="561" type="line"/>
      <point x="215" y="370" type="line" smooth="yes"/>
      <point x="215" y="-9"/>
      <point x="636" y="-40"/>
    </contour>
  </outline>
</glyph>
<glyph name="trademark" format="1">
  <advance width="1876"/>
  <unicode hex="2122"/>
  <outline>
    <contour>
      <point x="754" y="657" type="line"/>
      <point x="1125" y="657" type="line"/>
      <point x="1125" y="951" type="line"/>
      <point x="1203" y="657" type="line"/>
      <point x="1307" y="657" type="line"/>
      <point x="1386" y="951" type="line"/>
      <point x="1386" y="657" type="line"/>
      <point x="1756" y="657" type="line"/>
      <point x="1756" y="1595" type="line"/>
      <point x="1316" y="1595" type="line"/>
      <point x="1256" y="1158" type="line"/>
      <point x="1188" y="1595" type="line"/>
      <point x="754" y="1595" type="line"/>
    </contour>
    <contour>
      <point x="174" y="657" type="line"/>
      <point x="547" y="657" type="line"/>
      <point x="547" y="1453" type="line"/>
      <point x="710" y="1453" type="line"/>
      <point x="710" y="1595" type="line"/>
      <point x="12" y="1595" type="line"/>
      <point x="12" y="1453" type="line"/>
      <point x="174" y="1453" type="line"/>
    </contour>
  </outline>
</glyph>
<glyph name="partialdiff" format="1">
  <advance width="1414"/>
  <unicode hex="2202"/>
  <outline>
    <contour>
      <point x="642" y="-24" type="curve" smooth="yes"/>
      <point x="1085" y="-24"/>
      <point x="1180" y="395"/>
      <point x="1180" y="674" type="curve" smooth="yes"/>
      <point x="1180" y="1066"/>
      <point x="1002" y="1432"/>
      <point x="440" y="1432" type="curve"/>
      <point x="425" y="1286" type="line"/>
      <point x="813" y="1286"/>
      <point x="967" y="1008"/>
      <point x="972" y="774" type="curve"/>
      <point x="919" y="864"/>
      <point x="825" y="908"/>
      <point x="718" y="908" type="curve" smooth="yes"/>
      <point x="377" y="908"/>
      <point x="225" y="607"/>
      <point x="225" y="395" type="curve" smooth="yes"/>
      <point x="225" y="170"/>
      <point x="363" y="-24"/>
    </contour>
    <contour>
      <point x="672" y="146" type="curve" smooth="yes"/>
      <point x="546" y="146"/>
      <point x="447" y="233"/>
      <point x="447" y="397" type="curve" smooth="yes"/>
      <point x="447" y="517"/>
      <point x="516" y="736"/>
      <point x="721" y="736" type="curve" smooth="yes"/>
      <point x="815" y="736"/>
      <point x="877" y="689"/>
      <point x="960" y="588" type="curve"/>
      <point x="961" y="579"/>
      <point x="961" y="570"/>
      <point x="961" y="561" type="curve" smooth="yes"/>
      <point x="961" y="446"/>
      <point x="905" y="146"/>
    </contour>
  </outline>
</glyph>
<glyph name="product" format="1">
  <advance width="1651"/>
  <unicode hex="220F"/>
  <outline>
    <contour>
      <point x="271" y="0" type="line"/>
      <point x="502" y="0" type="line"/>
      <point x="502" y="1318" type="line"/>
      <point x="1141" y="1318" type="line"/>
      <point x="1141" y="0" type="line"/>
      <point x="1372" y="0" type="line"/>
      <point x="1372" y="1490" type="line"/>
      <point x="271" y="1490" type="line"/>
    </contour>
  </outline>
</glyph>
<glyph name="summation" format="1">
  <advance width="1391"/>
  <unicode hex="2211"/>
  <outline>
    <contour>
      <point x="202" y="-18" type="line"/>
      <point x="1183" y="-18" type="line"/>
      <point x="1183" y="155" type="line"/>
      <point x="422" y="155" type="line"/>
      <point x="952" y="679" type="line"/>
      <point x="952" y="788" type="line"/>
      <point x="425" y="1324" type="line"/>
      <point x="1183" y="1324" type="line"/>
      <point x="1183" y="1490" type="line"/>
      <point x="202" y="1490" type="line"/>
      <point x="202" y="1317" type="line"/>
      <point x="758" y="736" type="line"/>
      <point x="202" y="173" type="line"/>
    </contour>
  </outline>
</glyph>
<glyph name="uni2215" format="1">
  <advance width="1011"/>
  <unicode hex="2215"/>
  <outline>
    <contour>
      <point x="225" y="0" type="line"/>
      <point x="660" y="0" type="line"/>
      <point x="1011" y="1595" type="line"/>
      <point x="577" y="1595" type="line"/>
    </contour>
  </outline>
</glyph>
<glyph name="integral" format="1">
  <advance width="1414"/>
  <unicode hex="222B"/>
  <outline>
    <contour>
      <point x="576" y="-304" type="curve" smooth="yes"/>
      <point x="757" y="-304"/>
      <point x="873" y="-255"/>
      <point x="898" y="36" type="curve" smooth="yes"/>
      <point x="1011" y="1343" type="line" smooth="yes"/>
      <point x="1023" y="1479"/>
      <point x="1038" y="1504"/>
      <point x="1123" y="1504" type="curve" smooth="yes"/>
      <point x="1153" y="1504"/>
      <point x="1194" y="1492"/>
      <point x="1225" y="1475" type="curve"/>
      <point x="1294" y="1623" type="line"/>
      <point x="1250" y="1648"/>
      <point x="1167" y="1674"/>
      <point x="1111" y="1674" type="curve" smooth="yes"/>
      <point x="930" y="1674"/>
      <point x="815" y="1625"/>
      <point x="790" y="1334" type="curve" smooth="yes"/>
      <point x="676" y="27" type="line" smooth="yes"/>
      <point x="664" y="-109"/>
      <point x="649" y="-134"/>
      <point x="564" y="-134" type="curve" smooth="yes"/>
      <point x="534" y="-134"/>
      <point x="493" y="-123"/>
      <point x="462" y="-105" type="curve"/>
      <point x="393" y="-254" type="line"/>
      <point x="437" y="-278"/>
      <point x="520" y="-304"/>
    </contour>
  </outline>
</glyph>
<glyph name="approxequal" format="1">
  <advance width="1402"/>
  <unicode hex="2248"/>
  <outline>
    <contour>
      <point x="1015" y="399" type="curve" smooth="yes"/>
      <point x="1122" y="394"/>
      <point x="1171" y="454"/>
      <point x="1180" y="648" type="curve"/>
      <point x="1061" y="648" type="line"/>
      <point x="1056" y="569"/>
      <point x="1024" y="543"/>
      <point x="971" y="543" type="curve" smooth="yes"/>
      <point x="864" y="543"/>
      <point x="670" y="654"/>
      <point x="445" y="663" type="curve" smooth="yes"/>
      <point x="353" y="667"/>
      <point x="275" y="646"/>
      <point x="260" y="406" type="curve"/>
      <point x="378" y="406" type="line"/>
      <point x="377" y="491"/>
      <point x="411" y="520"/>
      <point x="470" y="520" type="curve" smooth="yes"/>
      <point x="585" y="520"/>
      <point x="794" y="410"/>
    </contour>
    <contour>
      <point x="966" y="741" type="curve" smooth="yes"/>
      <point x="1073" y="736"/>
      <point x="1122" y="796"/>
      <point x="1131" y="990" type="curve"/>
      <point x="1012" y="990" type="line"/>
      <point x="1007" y="911"/>
      <point x="975" y="885"/>
      <point x="922" y="885" type="curve" smooth="yes"/>
      <point x="815" y="885"/>
      <point x="621" y="995"/>
      <point x="396" y="1005" type="curve" smooth="yes"/>
      <point x="304" y="1009"/>
      <point x="226" y="988"/>
      <point x="211" y="748" type="curve"/>
      <point x="329" y="748" type="line"/>
      <point x="328" y="833"/>
      <point x="362" y="862"/>
      <point x="421" y="862" type="curve" smooth="yes"/>
      <point x="536" y="862"/>
      <point x="745" y="752"/>
    </contour>
  </outline>
</glyph>
<glyph name="greaterequal" format="1">
  <advance width="1350"/>
  <unicode hex="2265"/>
  <outline>
    <contour>
      <point x="234" y="410" type="line"/>
      <point x="1110" y="729" type="line"/>
      <point x="1110" y="1138" type="line"/>
      <point x="234" y="1457" type="line"/>
      <point x="234" y="1052" type="line"/>
      <point x="835" y="937" type="line"/>
      <point x="234" y="814" type="line"/>
    </contour>
    <contour>
      <point x="234" y="0" type="line"/>
      <point x="1116" y="0" type="line"/>
      <point x="1116" y="336" type="line"/>
      <point x="234" y="336" type="line"/>
    </contour>
  </outline>
</glyph>
<glyph name="lozenge" format="1">
  <advance width="1310"/>
  <unicode hex="25CA"/>
  <outline>
    <contour>
      <point x="579" y="0" type="line"/>
      <point x="718" y="0" type="line"/>
      <point x="1151" y="699" type="line"/>
      <point x="718" y="1398" type="line"/>
      <point x="579" y="1398" type="line"/>
      <point x="158" y="699" type="line"/>
    </contour>
    <contour>
      <point x="656" y="235" type="line"/>
      <point x="384" y="699" type="line"/>
      <point x="656" y="1163" type="line"/>
      <point x="931" y="699" type="line"/>
    </contour>
  </outline>
</glyph>
